<svg width="36" height="28" viewBox="0 0 36 28" fill="none" xmlns="http://www.w3.org/2000/svg">
<path fill-rule="evenodd" clip-rule="evenodd" d="M24.7303 0.156006C30.698 0.156006 35.5358 4.9943 35.5358 10.962C35.5358 16.9296 30.698 21.7674 24.7303 21.7674C22.2045 21.7674 19.881 20.9009 18.041 19.4486C20.5484 17.4696 22.1576 14.4038 22.1576 10.962C22.1576 7.52011 20.5484 4.45384 18.041 2.47533C19.881 1.02305 22.2045 0.156006 24.7303 0.156006Z" fill="#F79E1B"/>
<path fill-rule="evenodd" clip-rule="evenodd" d="M11.3521 0.156006C13.8779 0.156006 16.2009 1.02305 18.0409 2.47533C15.534 4.45384 13.9242 7.52011 13.9242 10.962C13.9242 14.4038 15.534 17.4696 18.0409 19.4486C16.2014 20.9009 13.8779 21.7674 11.3521 21.7674C5.3844 21.7674 0.546631 16.9296 0.546631 10.962C0.546631 4.9943 5.3844 0.156006 11.3521 0.156006Z" fill="#EB001B"/>
<path fill-rule="evenodd" clip-rule="evenodd" d="M18.0413 19.4489C15.5344 17.4698 13.9246 14.4041 13.9246 10.9622C13.9246 7.52037 15.5344 4.4541 18.0413 2.47559C20.5486 4.4541 22.1579 7.52037 22.1579 10.9622C22.1579 14.4041 20.5486 17.4698 18.0413 19.4489Z" fill="#F14F1B"/>
<path fill-rule="evenodd" clip-rule="evenodd" d="M2.27689 24.7139V24.3867H1.64899V27.2528H2.30375V25.533C2.30375 25.1937 2.56713 24.9051 2.98643 24.9051C3.48264 24.9051 3.61433 25.2812 3.61433 25.7784V27.2528H4.24223V25.7516C4.24223 24.5948 5.55228 24.7038 5.55228 25.533V27.2528H6.20757V25.3965C6.20757 24.2103 4.64625 23.9479 4.07841 24.796C3.87508 24.647 3.8303 24.3046 3.04121 24.3046C2.87002 24.3046 2.71252 24.3662 2.59505 24.432C2.52657 24.47 2.47126 24.5063 2.41911 24.5564C2.35274 24.6201 2.33904 24.6686 2.27689 24.7139Z" fill="#231D20"/>
<path fill-rule="evenodd" clip-rule="evenodd" d="M30.8031 25.9161C30.8031 25.6253 30.8268 25.3398 31.0559 25.1317C31.5885 24.6492 32.4955 24.9795 32.4955 25.7249V25.9161C32.4955 26.3633 32.0952 26.732 31.649 26.732C31.2029 26.732 30.8031 26.3633 30.8031 25.9161ZM32.4682 24.6877C32.2359 24.5317 32.1405 24.3052 31.5674 24.3052C30.7267 24.3052 30.1341 24.99 30.1351 25.8065C30.1372 27.1761 31.54 27.6718 32.2891 27.1018C32.3681 27.0418 32.3981 27.0001 32.4682 26.9533V27.2535H33.1229V23.2954C33.1229 23.1606 32.908 23.2133 32.5498 23.2133C32.4281 23.2133 32.4666 23.3834 32.4676 23.5135L32.4682 24.6877Z" fill="#231D20"/>
<path fill-rule="evenodd" clip-rule="evenodd" d="M25.0157 25.9155C25.0157 25.5336 25.0804 25.1396 25.5166 24.97C26.105 24.7414 26.7076 25.1317 26.7076 25.7243V25.9155C26.7076 26.3627 26.3078 26.7315 25.8616 26.7315C25.4155 26.7315 25.0157 26.3627 25.0157 25.9155ZM25.78 27.3346C26.3305 27.3346 26.469 27.0939 26.6807 26.9527V27.253H27.3355V24.3869H26.6807V24.6871C26.4484 24.5312 26.3531 24.3047 25.78 24.3047C24.461 24.3047 23.8968 25.9229 24.7354 26.8774C24.9382 27.1081 25.357 27.3346 25.78 27.3346Z" fill="#231D20"/>
<path fill-rule="evenodd" clip-rule="evenodd" d="M8.28189 26.7341C7.12513 26.7341 7.10037 24.9052 8.28189 24.9052C9.21373 24.9052 9.42654 26.2553 8.65115 26.6393C8.58425 26.6725 8.36407 26.7341 8.28189 26.7341ZM6.75323 25.7243V25.9155C6.75323 26.8985 7.80728 27.6196 8.69171 27.2256C8.94719 27.1118 8.95193 27.0338 9.07361 26.9527V27.253H9.7289V24.3869H9.07361V24.6871C8.85448 24.5401 8.79127 24.3047 8.14546 24.3047C7.74407 24.3047 7.37323 24.5149 7.16885 24.7198C6.96605 24.9226 6.75323 25.3271 6.75323 25.7243Z" fill="#231D20"/>
<path fill-rule="evenodd" clip-rule="evenodd" d="M17.4271 24.8781C17.6562 24.8781 17.8401 24.9371 17.966 25.0767C18.0518 25.171 18.1603 25.3933 18.164 25.5608H16.7175C16.7175 25.1879 17.0499 24.8781 17.4271 24.8781ZM16.0349 25.7246C16.0349 27.3207 17.4692 27.6215 18.4284 27.1079C18.5217 27.0579 18.6007 26.9746 18.6829 26.953C18.6687 26.784 18.4548 26.6291 18.41 26.4616C18.3394 26.4779 17.4745 27.0779 16.9145 26.51C16.7265 26.3199 16.7676 26.2135 16.6901 26.0523H18.8193C18.823 25.8953 18.8609 25.9101 18.8314 25.7131C18.8114 25.5771 18.8156 25.5002 18.7856 25.3759C18.4864 24.1243 17.0631 24.0495 16.4299 24.727C16.2334 24.9377 16.0349 25.3322 16.0349 25.7246Z" fill="#231D20"/>
<path fill-rule="evenodd" clip-rule="evenodd" d="M10.4391 25.1238C10.4391 25.4193 10.4312 25.5494 10.6772 25.7865C11.1565 26.2495 12.2132 25.9671 12.2132 26.4339C12.2132 26.8273 11.4062 26.7973 11.0217 26.6704C10.9358 26.6419 10.8857 26.6209 10.812 26.5798C10.7293 26.5329 10.6956 26.486 10.6029 26.4612C10.527 26.605 10.3379 26.8821 10.33 26.9801C10.4222 27.0043 10.5002 27.0749 10.5771 27.115C11.0807 27.3773 11.9013 27.4205 12.4234 27.135C13.0075 26.8152 13.144 25.8281 12.1431 25.5763C11.7723 25.4831 11.0943 25.4925 11.0943 25.2054C11.0943 24.9631 11.3909 24.8778 11.6401 24.8778C11.9972 24.8778 12.3054 24.999 12.5408 25.1238C12.6335 24.9484 12.7226 24.7772 12.8142 24.6049C12.3507 24.36 12.1189 24.3047 11.531 24.3047C11.0238 24.3047 10.4391 24.626 10.4391 25.1238Z" fill="#231D20"/>
<path fill-rule="evenodd" clip-rule="evenodd" d="M13.8785 24.3049C13.8785 24.4419 13.6456 24.3871 13.278 24.3871V24.9602H13.8785V26.4615C13.8785 27.3117 14.8219 27.5561 15.6526 27.1168C15.6394 26.9561 15.5277 26.7375 15.4888 26.5705C15.3376 26.5831 14.5058 27.0683 14.5058 26.1886V24.9602H15.5436V24.3871H14.5058V23.5132H13.8785V24.3049Z" fill="#231D20"/>
<path fill-rule="evenodd" clip-rule="evenodd" d="M21.4666 25.7521C21.4666 27.316 23.0485 27.6474 23.9103 27.0764C23.9877 27.0253 23.9366 27.0332 24.0325 27.0073C24.0246 26.9099 23.8344 26.6307 23.7596 26.489C23.6442 26.4985 23.4615 26.6434 23.2745 26.6866C21.6631 27.0595 21.7927 24.3999 23.4088 24.9835C23.5589 25.0373 23.6163 25.1179 23.7596 25.1516C23.8038 24.9846 23.9887 24.8202 24.0325 24.6327C23.9408 24.5843 23.9361 24.5642 23.8507 24.5142C23.2666 24.1744 22.3874 24.2397 21.9096 24.7212C21.6447 24.9888 21.4666 25.3312 21.4666 25.7521Z" fill="#231D20"/>
<path fill-rule="evenodd" clip-rule="evenodd" d="M28.7547 24.6876V24.3873H28.1268V27.2534H28.7821V25.4787C28.7821 25.2533 28.9396 25.0294 29.1087 24.9594C29.3125 24.8746 29.5943 24.9062 29.7645 24.9878C29.8308 24.8493 29.9167 24.5543 29.9557 24.3873C29.6523 24.2414 29.1608 24.2719 28.8895 24.5495C28.8374 24.6033 28.82 24.6438 28.7547 24.6876Z" fill="#231D20"/>
<path fill-rule="evenodd" clip-rule="evenodd" d="M20.102 24.6871V24.3869H19.4741V27.253H20.102V25.6147C20.102 25.2302 20.2921 24.9052 20.6751 24.9052C20.8468 24.9052 20.9774 24.9558 21.1118 24.9874C21.1197 24.8926 21.2645 24.4664 21.303 24.3869C21.1881 24.3316 20.9722 24.3047 20.8115 24.3047C20.4559 24.3047 20.2674 24.4964 20.102 24.6871Z" fill="#231D20"/>
<path fill-rule="evenodd" clip-rule="evenodd" d="M34.1606 27.3348C33.9293 27.3348 33.942 27.153 33.942 27.0619C33.942 26.8838 34.3513 26.809 34.3513 27.1167C34.3513 27.2331 34.2675 27.3348 34.1606 27.3348ZM34.0884 27.3895H34.051C33.9636 27.389 33.8614 27.2536 33.8466 27.1578C33.7903 26.7838 34.4334 26.7 34.4334 27.0893C34.4334 27.3764 34.2723 27.389 34.0884 27.3895Z" fill="#231D20"/>
<path fill-rule="evenodd" clip-rule="evenodd" d="M34.1053 27.0347H34.187V27.0895H34.1053V27.0347ZM34.0237 27.2533H34.1053V27.1712C34.1949 27.2312 34.1433 27.2428 34.2692 27.2533C34.1491 27.0742 34.2639 27.2381 34.2692 27.0073L34.0237 26.9805V27.2533Z" fill="#231D20"/>
</svg>
