<svg width="70" height="12" viewBox="0 0 70 12" fill="none" xmlns="http://www.w3.org/2000/svg">
<path d="M8.75901 1.63424C8.28627 1.15425 7.77056 0.791338 7.21186 0.553297C6.65708 0.311354 6.05541 0.190383 5.42249 0.190383C4.04335 0.190383 2.87127 0.717196 1.90235 1.76692C0.93734 2.82054 0.456788 4.16684 0.452881 5.81361C0.452881 7.40185 0.949061 8.73254 1.94923 9.79787C2.9455 10.8671 4.1293 11.4017 5.49282 11.4017C6.1023 11.4017 6.6688 11.2925 7.18842 11.0739C7.71195 10.8554 8.23157 10.4964 8.75119 10.0008V11.1286H11.4196V0.47135H8.7551V1.63424H8.75901ZM8.05185 8.07305C7.50488 8.6584 6.81336 8.95107 5.97728 8.95107C5.16854 8.95107 4.48874 8.65059 3.93786 8.05354C3.38698 7.45649 3.10959 6.69944 3.10959 5.77459C3.10959 4.85755 3.38308 4.1044 3.92223 3.51905C4.46529 2.93371 5.1451 2.64103 5.96555 2.64103C6.80554 2.64103 7.50098 2.92981 8.04795 3.50345C8.59492 4.08099 8.77464 4.73658 8.77073 5.66923C8.77854 6.62139 8.59882 7.4877 8.05185 8.07305ZM26.7309 1.63424C26.2581 1.15425 25.7424 0.791338 25.1876 0.553297C24.6289 0.311354 24.0312 0.190383 23.3944 0.190383C22.0191 0.190383 20.8431 0.717196 19.8781 1.76692C18.9131 2.82054 18.4326 4.16684 18.4286 5.81361C18.4286 7.40185 18.9248 8.73254 19.925 9.79787C20.9213 10.8671 22.1051 11.4017 23.4725 11.4017C24.082 11.4017 24.6485 11.2925 25.1642 11.0739C25.6877 10.8554 26.2073 10.4964 26.727 10.0008V11.1286H29.3954V0.47135H26.7309V1.63424ZM26.0237 8.07305C25.4767 8.6584 24.7813 8.95107 23.953 8.95107C23.1443 8.95107 22.4645 8.65059 21.9097 8.05354C21.3588 7.45649 21.0815 6.69944 21.0815 5.77459C21.0815 4.85755 21.351 4.1044 21.8941 3.51905C22.4372 2.93371 23.117 2.64103 23.9374 2.64103C24.7774 2.64103 25.4689 2.92981 26.0198 3.50345C26.5668 4.08099 26.7426 4.73658 26.7426 5.66923C26.7504 6.62139 26.5746 7.4877 26.0237 8.07305ZM45.4568 0.728901C44.8825 0.377693 44.2222 0.202089 43.4642 0.202089C42.7336 0.202089 42.0616 0.365988 41.4444 0.693782C40.8271 1.02158 40.3114 1.50156 39.8855 2.13764C39.5612 1.50546 39.1315 1.02158 38.6001 0.693782C38.0649 0.362086 37.4671 0.198188 36.8029 0.198188C36.1466 0.198188 35.5371 0.323061 34.9823 0.572809C34.4236 0.822557 33.9196 1.20108 33.4625 1.70838V0.47135H30.7902L30.7863 11.1325H33.4547V6.40286C33.4547 5.38046 33.5446 4.63121 33.7243 4.15513C33.904 3.67905 34.1775 3.31223 34.5369 3.04688C34.9003 2.78542 35.3027 2.65274 35.7481 2.65274C36.1466 2.65274 36.4865 2.7581 36.7678 2.96883C37.0491 3.17955 37.26 3.49564 37.4007 3.92099C37.5413 4.34635 37.6117 5.03705 37.6117 5.98922L37.6078 11.1364H40.2801V6.33652C40.284 5.31802 40.3699 4.58048 40.5458 4.12391C40.7216 3.66344 40.9951 3.30443 41.3545 3.04297C41.7139 2.78152 42.1281 2.65274 42.5891 2.65274C43.1908 2.65274 43.64 2.86737 43.9409 3.29272C44.2417 3.72197 44.3941 4.53756 44.3941 5.73947L44.3902 11.1286H47.0586L47.0625 4.88486C47.0625 3.6049 46.9375 2.68006 46.6875 2.11032C46.4452 1.54449 46.0311 1.08401 45.4568 0.728901ZM56.3844 7.9911C55.6695 8.70132 54.8178 9.05643 53.8215 9.05643C52.9893 9.05643 52.3056 8.8262 51.7704 8.37353C51.2351 7.92086 50.9069 7.3082 50.7819 6.53944L59.3459 6.54334L59.3576 6.03604C59.3576 4.28 58.8341 2.86737 57.787 1.79423C56.74 0.725001 55.3804 0.190384 53.7043 0.186482C52.1298 0.186482 50.8171 0.721098 49.7739 1.79814C48.7269 2.87127 48.2072 4.22147 48.2072 5.84873C48.2072 7.43697 48.7308 8.75596 49.7739 9.81348C50.8171 10.871 52.1767 11.3978 53.841 11.3978C54.9154 11.3978 55.8375 11.2066 56.6228 10.8242C57.4002 10.4418 58.0722 9.85251 58.6309 9.05253L56.3844 7.9911ZM51.8837 3.0898C52.4463 2.67615 53.0987 2.47323 53.841 2.47323C54.5287 2.47323 55.1303 2.65664 55.646 3.02346C56.1657 3.39418 56.5134 3.86636 56.6892 4.45561L50.9108 4.45171C51.2039 3.80002 51.532 3.34735 51.8837 3.0898ZM65.6829 5.48972L69.2929 0.467448H66.2455L64.1553 3.37467L62.0573 0.467448H58.9669L62.6121 5.51704L58.5801 11.1286H61.6236L64.1319 7.63209L66.6558 11.1286H69.75L65.6829 5.48972ZM17.8504 0.143555C17.3582 0.143555 16.9245 0.23721 16.565 0.416716C16.2095 0.59232 15.8032 0.920116 15.3422 1.3962V0.47135H12.7949V11.1325H15.4633V5.58728C15.4633 3.55417 16.0259 2.53567 17.3855 2.53567C17.6199 2.53567 17.8621 2.5864 18.1044 2.67616C18.542 1.94252 19.0499 1.25571 19.6164 0.619637C19.003 0.311355 18.413 0.143555 17.8504 0.143555Z" fill="#E12626"/>
</svg>
