<svg width="28" height="28" viewBox="0 0 28 28" fill="none" xmlns="http://www.w3.org/2000/svg">
<path d="M15.172 0.137207H13.6146C5.05763 0.137207 0.75 1.46171 0.75 13.7738C0.75 26.5209 5.83416 27.4082 14.3912 27.4082C22.9481 27.4082 28 26.8536 28 13.7738C28 0.604807 23.6859 0.137207 15.1677 0.137207" fill="#ED3012"/>
<path d="M22.6163 15.8829C22.5609 16.1815 22.4085 16.453 22.1832 16.6546C21.9579 16.8563 21.6723 16.9765 21.3717 16.9964C18.9558 17.1574 16.3781 17.2466 13.6559 17.2291C11.4514 17.2161 9.3418 17.1335 7.34008 17.0008C7.02389 16.9795 6.72496 16.8477 6.49467 16.6282C6.26438 16.4087 6.11712 16.1152 6.07821 15.7981C5.99003 15.094 5.94681 14.385 5.9488 13.6754C5.95086 13.0086 5.99335 12.3426 6.07605 11.681C6.11587 11.3616 6.26625 11.0668 6.50067 10.8483C6.73509 10.6299 7.03848 10.5019 7.35734 10.487C9.4727 10.3797 11.6772 10.3216 13.9708 10.313C16.5377 10.313 19.0011 10.3717 21.3523 10.4892C21.6592 10.5053 21.9518 10.6256 22.1824 10.8305C22.413 11.0354 22.5682 11.3129 22.6228 11.6179C22.7431 12.2869 22.8066 12.965 22.8126 13.6449C22.8184 14.3955 22.7526 15.1449 22.6163 15.8829Z" stroke="white" stroke-width="0.744629" stroke-miterlimit="10"/>
<path d="M20.2124 13.684C20.2124 13.8256 20.1708 13.9639 20.0928 14.0816C20.0149 14.1992 19.904 14.2909 19.7743 14.3451C19.6446 14.3993 19.502 14.4135 19.3643 14.3859C19.2267 14.3582 19.1002 14.2901 19.0009 14.19C18.9017 14.09 18.8341 13.9625 18.8067 13.8237C18.7793 13.6848 18.7934 13.541 18.8471 13.4102C18.9008 13.2795 18.9918 13.1677 19.1085 13.0891C19.2252 13.0105 19.3624 12.9685 19.5028 12.9685C19.6909 12.9685 19.8715 13.0439 20.0046 13.1781C20.1376 13.3123 20.2124 13.4943 20.2124 13.684Z" fill="white"/>
<path d="M20.2124 13.684C20.2124 13.8256 20.1708 13.9639 20.0928 14.0816C20.0149 14.1992 19.904 14.2909 19.7743 14.3451C19.6446 14.3993 19.502 14.4135 19.3643 14.3859C19.2267 14.3582 19.1002 14.2901 19.0009 14.19C18.9017 14.09 18.8341 13.9625 18.8067 13.8237C18.7793 13.6848 18.7934 13.541 18.8471 13.4102C18.9008 13.2795 18.9918 13.1677 19.1085 13.0891C19.2252 13.0105 19.3624 12.9685 19.5028 12.9685C19.6909 12.9685 19.8715 13.0439 20.0046 13.1781C20.1376 13.3123 20.2124 13.4943 20.2124 13.684Z" stroke="white" stroke-width="0.702761" stroke-miterlimit="10"/>
</svg>
