<svg width="43" height="14" viewBox="0 0 43 14" fill="none" xmlns="http://www.w3.org/2000/svg">
<path d="M21.1409 0.290366L18.3606 13.2885H14.9977L17.7783 0.290366H21.1409ZM35.2882 8.6834L37.0581 3.80235L38.0766 8.6834H35.2882ZM39.0414 13.2885H42.1508L39.4343 0.290366H36.566C35.9197 0.290366 35.3747 0.665156 35.1335 1.24313L30.0879 13.2885H33.6195L34.3205 11.3473H38.6341L39.0414 13.2885ZM30.263 9.04504C30.2776 5.61462 25.5208 5.42459 25.5527 3.89181C25.5629 3.4261 26.0073 2.92998 26.9785 2.8031C27.46 2.74112 28.7887 2.69084 30.2949 3.38488L30.8839 0.627444C30.075 0.334803 29.034 0.0529785 27.7386 0.0529785C24.4143 0.0529785 22.0758 1.81876 22.0571 4.34933C22.0357 6.22066 23.7275 7.26405 24.9996 7.88734C26.311 8.52436 26.7504 8.93277 26.744 9.50198C26.7349 10.3741 25.6983 10.7602 24.7329 10.7749C23.0414 10.8012 22.0609 10.3176 21.2794 9.95336L20.669 12.8029C21.456 13.1631 22.906 13.4765 24.4076 13.4925C27.9418 13.4925 30.2525 11.7475 30.263 9.04504ZM16.3358 0.290366L10.8873 13.2885H7.33323L4.6518 2.91507C4.48926 2.27717 4.34747 2.0427 3.85311 1.77316C3.04447 1.33405 1.70961 0.9233 0.535828 0.667788L0.615347 0.290366H6.33719C7.06602 0.290366 7.72176 0.775371 7.88869 1.615L9.30512 9.13713L12.8031 0.290366H16.3358Z" fill="#1434CB"/>
</svg>
