<svg width="44" height="15" viewBox="0 0 44 15" fill="none" xmlns="http://www.w3.org/2000/svg">
<path d="M18.4682 8.87939H0.150818V14.9816H18.4682V8.87939Z" fill="#84B740"/>
<path d="M18.4681 0.552734H0.150757V6.66034H18.4681V0.552734Z" fill="#259BD6"/>
<path d="M36.7859 13.7414L36.7043 13.7577C36.4215 13.8121 36.3182 13.8339 36.1115 13.8339C35.6329 13.8339 35.0673 13.5891 35.0673 12.4361C35.0673 11.8433 35.1652 11.0547 36.0571 11.0547H36.0626C36.2149 11.0656 36.3889 11.0819 36.7152 11.1798L36.7859 11.2016V13.7414ZM36.9328 7.99276L36.7859 8.01995V10.1519L36.6554 10.1138L36.6173 10.103C36.4705 10.0594 36.1333 9.96155 35.807 9.96155C34.0231 9.96155 33.6478 11.3103 33.6478 12.4416C33.6478 13.9916 34.518 14.8835 36.0354 14.8835C36.6772 14.8835 37.1503 14.8183 37.6289 14.6605C38.0695 14.5191 38.2272 14.3179 38.2272 13.8883V7.76978C37.803 7.84592 37.3624 7.92206 36.9328 7.99276Z" fill="#27292D"/>
<path d="M42.0885 13.7797L42.0124 13.8015L41.7404 13.8722C41.4848 13.9374 41.2564 13.9755 41.0824 13.9755C40.6636 13.9755 40.4134 13.7688 40.4134 13.4153C40.4134 13.1869 40.5168 12.8007 41.202 12.8007H42.0885V13.7797ZM41.4631 9.93457C40.9138 9.93457 40.3482 10.0325 39.6466 10.25L39.1897 10.386L39.342 11.4193L39.788 11.2725C40.2557 11.1202 40.8376 11.0223 41.2727 11.0223C41.4685 11.0223 42.0668 11.0223 42.0668 11.6695V11.9523H41.2347C39.7173 11.9523 39.0157 12.4364 39.0157 13.4751C39.0157 14.3616 39.6629 14.8946 40.7506 14.8946C41.0878 14.8946 41.5555 14.8294 41.958 14.7315L41.9798 14.726L42.0015 14.7315L42.1375 14.7532C42.5617 14.8294 43.0022 14.9055 43.4319 14.9871V11.5934C43.4319 10.4948 42.7684 9.93457 41.4631 9.93457Z" fill="#27292D"/>
<path d="M31.5209 13.7797L31.4448 13.8015L31.1728 13.8722C30.9172 13.9374 30.6942 13.9755 30.5147 13.9755C30.096 13.9755 29.8458 13.7688 29.8458 13.4153C29.8458 13.1869 29.9491 12.8007 30.629 12.8007H31.5155V13.7797H31.5209ZM30.9009 9.93457C30.3461 9.93457 29.786 10.0325 29.0844 10.25L28.6275 10.386L28.7798 11.4193L29.2258 11.2725C29.6935 11.1202 30.2754 11.0223 30.7105 11.0223C30.9063 11.0223 31.5046 11.0223 31.5046 11.6695V11.9523H30.6725C29.1551 11.9523 28.4481 12.4364 28.4481 13.4751C28.4481 14.3616 29.0953 14.8946 30.1884 14.8946C30.5256 14.8946 30.9933 14.8294 31.3958 14.7315L31.4176 14.726L31.4393 14.7315L31.5698 14.7532C31.9995 14.8294 32.4346 14.9055 32.8642 14.9925V11.5988C32.8697 10.4893 32.2062 9.93457 30.9009 9.93457Z" fill="#27292D"/>
<path d="M25.7944 9.94513C25.1037 9.94513 24.5326 10.1736 24.3205 10.2715L24.2661 10.2986L24.2172 10.2606C23.9235 10.0485 23.4938 9.9397 22.8956 9.9397C22.368 9.9397 21.8731 10.0158 21.3347 10.1736C20.8724 10.315 20.6929 10.5379 20.6929 10.9567V14.8345H22.1396V11.2504L22.2103 11.2287C22.504 11.1308 22.678 11.1144 22.8466 11.1144C23.2654 11.1144 23.4775 11.3374 23.4775 11.7725V14.8399H24.9024V11.7127C24.9024 11.5278 24.8644 11.419 24.8589 11.3973L24.81 11.3048L24.9079 11.2613C25.1254 11.1634 25.3647 11.1144 25.6149 11.1144C25.9032 11.1144 26.2458 11.2287 26.2458 11.7725V14.8399H27.6653V11.6311C27.6653 10.4944 27.0562 9.94513 25.7944 9.94513Z" fill="#27292D"/>
<path d="M41.0218 4.53383C40.8097 4.53383 40.4562 4.51207 40.1788 4.45769L40.0972 4.44137V2.34749C40.0972 2.17345 40.0646 2.06468 40.0592 2.04836L40.0157 1.96135L40.1081 1.92327C40.1299 1.9124 40.1516 1.90696 40.1788 1.89608L40.1951 1.8852C40.2278 1.87433 40.2604 1.86345 40.293 1.85257C40.3093 1.84713 40.3202 1.8417 40.3311 1.8417C40.652 1.75468 40.9457 1.76555 41.0762 1.75468H41.0816C41.9681 1.75468 42.0715 2.54328 42.0715 3.13609C42.066 4.28909 41.495 4.53383 41.0218 4.53383ZM41.0164 0.552734C41.0055 0.552734 40.9892 0.552734 40.9783 0.552734C40.1462 0.552734 39.2923 0.781159 38.9878 1.22713C38.8246 1.44467 38.7321 1.71661 38.7267 2.03749V4.19663C38.7267 4.38154 38.6886 4.45225 38.6832 4.46856L38.6342 4.56102H36.0074V3.05995H36.0019C35.9693 1.47731 35.0339 0.607121 33.6796 0.607121H33.5219H32.358C32.3036 0.993265 32.2601 1.2652 32.2058 1.65134H33.5219C34.2126 1.65134 34.577 2.23872 34.577 3.14153V4.65348L34.4846 4.60453C34.4682 4.59909 34.354 4.56102 34.1745 4.56102H31.9012C31.8577 4.84927 31.8033 5.22454 31.7435 5.5998H38.7321C38.9714 5.55086 39.2488 5.50735 39.4881 5.46928C39.8416 5.64331 40.4997 5.73577 40.9511 5.73577C42.4685 5.73577 43.4529 4.71874 43.4529 3.15241C43.4474 1.60239 42.4957 0.585366 41.0164 0.552734Z" fill="#27292D"/>
<path d="M28.7639 6.23611H28.8292C30.3465 6.23611 31.0536 5.73576 31.0536 4.50118C31.0536 3.61468 30.4064 2.90766 29.3186 2.90766H27.9209C27.5021 2.90766 27.2519 2.66836 27.2519 2.2659C27.2519 1.99397 27.3553 1.65677 28.0406 1.65677H31.0971C31.1623 1.25975 31.195 1.00957 31.2548 0.612549H28.0786C26.5993 0.612549 25.8542 1.23255 25.8542 2.2659C25.8542 3.28836 26.5014 3.82135 27.5891 3.82135H28.9869C29.4057 3.82135 29.6558 4.15311 29.6558 4.50118C29.6558 4.72961 29.5525 5.20277 28.8727 5.20277H28.6388L24.1628 5.19189H23.347C22.6563 5.19189 22.1722 4.80031 22.1722 3.89206V3.26661C22.1722 2.32029 22.5475 1.73291 23.347 1.73291H24.674C24.7339 1.33045 24.7719 1.07483 24.8263 0.694129H23.173H23.0152C21.661 0.694129 20.7256 1.60238 20.6929 3.18503V3.24486V3.89206C20.7256 5.4747 21.661 6.23068 23.0152 6.23068H23.173H24.3368L26.7625 6.23611H28.2091H28.7639Z" fill="#27292D"/>
</svg>
