<svg width="43" height="51" viewBox="0 0 43 51" fill="none" xmlns="http://www.w3.org/2000/svg">
<path d="M2.53742 34.7938H40.1605C40.9172 34.7938 41.6079 35.0486 42.1515 35.4618V2.60771C42.1515 1.50573 41.1964 0.617188 40.0209 0.617188H2.68437C1.50892 0.617188 0.553772 1.50573 0.553772 2.60771V35.4618C1.09008 35.0416 1.7807 34.7938 2.53742 34.7938Z" fill="#005B47"/>
<path d="M36.3113 4.79095C36.3113 4.46728 36.0248 4.21237 35.6574 4.21237C35.2901 4.21237 35.0035 4.46717 35.0035 4.79095C35.0035 5.12153 35.2827 5.36953 35.6574 5.36953C36.0322 5.37644 36.3113 5.12165 36.3113 4.79095ZM33.5268 9.62609H37.9128V8.2555C37.9128 7.88356 37.8394 7.63557 37.6631 7.43584C37.472 7.22229 37.1709 7.11217 36.7594 7.11217H33.5268V9.62609ZM25.078 12.4432C24.865 12.4432 24.6593 12.4157 24.4463 12.3605L24.3213 12.333L24.5785 11.4444L24.6961 11.4719C24.865 11.5133 24.9239 11.5202 25.0413 11.5202C25.4748 11.5202 25.6143 11.3824 25.6143 10.5835V5.65196H26.6061V9.62609H32.5277V5.64505H33.5195V6.18919H36.752C37.5087 6.18919 38.0009 6.37521 38.4124 6.81591C38.7209 7.1465 38.8974 7.65619 38.8974 8.2623V10.5559H26.5033V10.6041C26.54 11.3066 26.4004 11.8094 26.0918 12.1125C25.7613 12.4432 25.2983 12.4432 25.078 12.4432ZM23.4616 11.782C23.4616 11.4583 23.1825 11.2104 22.8225 11.2104C22.4699 11.2104 22.1907 11.4651 22.1907 11.782C22.1907 12.1057 22.4625 12.3468 22.8225 12.3468C23.1899 12.3468 23.4616 12.1057 23.4616 11.782ZM21.669 11.782C21.669 11.4583 21.3899 11.2104 21.0373 11.2104C20.6847 11.2104 20.4055 11.4651 20.4055 11.782C20.4055 12.1057 20.6773 12.3468 21.0373 12.3468C21.3973 12.3468 21.669 12.1057 21.669 11.782ZM16.1148 11.7613C16.1148 11.4376 15.8283 11.1896 15.461 11.1896C15.0936 11.1896 14.8071 11.4444 14.8071 11.7613C14.8071 12.0919 15.0862 12.3399 15.461 12.3399C15.8357 12.3399 16.1148 12.0988 16.1148 11.7613ZM6.61544 4.01275C6.61544 3.69588 6.33629 3.448 5.98367 3.448C5.63105 3.448 5.3519 3.69599 5.3519 4.01275C5.3519 4.33643 5.62368 4.58442 5.98367 4.58442C6.34366 4.58442 6.61544 4.33643 6.61544 4.01275ZM8.40067 4.01275C8.40067 3.69588 8.12152 3.448 7.76152 3.448C7.4089 3.448 7.12975 3.69599 7.12975 4.01275C7.12975 4.33643 7.40153 4.58442 7.76152 4.58442C8.12889 4.58442 8.40067 4.33643 8.40067 4.01275ZM6.68154 6.56803C5.77788 6.56803 4.80811 7.15352 4.80811 8.10403C4.80811 9.15786 5.74851 9.6262 6.68154 9.6262H7.28395V6.56803H6.68154ZM6.81375 10.5491C4.60231 10.5491 3.81622 9.23354 3.81622 8.10392C3.81622 6.65753 5.11662 5.64505 6.98269 5.64505H7.28395V5.21806H8.27572V9.6262H14.9686V5.64505H15.9532V9.62609H22.1906V5.64505H23.1604V10.5491H6.81375Z" fill="white"/>
<path d="M38.8965 13.6555H37.9048V20.86H38.8965V13.6555ZM7.26112 16.8859V19.944H6.65872C5.72568 19.944 4.78528 19.4756 4.78528 18.4218C4.78528 17.4782 5.75505 16.8858 6.65872 16.8858L7.26112 16.8859ZM30.3375 16.8859V19.944H28.8828L28.8681 19.937C28.2216 19.5789 27.8468 19.0279 27.8468 18.408C27.8468 17.4161 28.7725 16.8858 29.6468 16.8858L30.3375 16.8859ZM16.6798 19.0348C16.6798 19.9922 15.8937 20.7154 14.8505 20.7154C13.866 20.7154 13.0872 19.9784 13.0872 19.0348C13.0872 18.0843 13.8587 17.3404 14.8505 17.3404C15.9083 17.3404 16.6798 18.0568 16.6798 19.0348ZM16.8707 20.8806L16.8855 20.8668H36.0533V13.6555H35.0616V19.937H31.3221V15.9629H29.9556C28.0747 15.9629 26.8626 16.9203 26.8626 18.4081C26.8626 18.966 27.0536 19.455 27.4282 19.8614L27.5017 19.9372H22.7997V15.963H21.8079V19.944H17.4954L17.5174 19.882C17.6128 19.6203 17.6643 19.3378 17.6643 19.0486C17.6643 17.554 16.4521 16.4175 14.8505 16.4175C13.3077 16.4175 12.1027 17.5747 12.1027 19.0486C12.1027 19.331 12.1542 19.6134 12.2423 19.882L12.2643 19.944H8.25289V15.5358H7.26112V15.9628H6.95986C5.09379 15.9628 3.7934 16.9753 3.7934 18.4217C3.7934 19.6063 4.62359 20.8668 6.95986 20.8668H12.8667L12.8814 20.8806C13.4031 21.3765 14.101 21.652 14.8431 21.652C15.6144 21.6452 16.3564 21.3697 16.8707 20.8806ZM31.0721 14.6611C31.0721 14.3442 30.793 14.0963 30.433 14.0963C30.0804 14.0963 29.8012 14.3443 29.8012 14.6611C29.8012 14.9848 30.073 15.2328 30.433 15.2328C30.793 15.2329 31.0721 14.9849 31.0721 14.6611ZM29.2869 14.6611C29.2869 14.3442 29.0078 14.0963 28.6552 14.0963C28.3025 14.0963 28.0234 14.3443 28.0234 14.6611C28.0234 14.9848 28.2952 15.2328 28.6552 15.2328C29.015 15.2329 29.2869 14.9849 29.2869 14.6611ZM23.7694 22.0998C23.7694 21.7761 23.4903 21.5281 23.1303 21.5281C22.7777 21.5281 22.4985 21.7829 22.4985 22.0998C22.4985 22.4234 22.7703 22.6645 23.1303 22.6645C23.4976 22.6646 23.7694 22.4236 23.7694 22.0998ZM21.9769 22.0998C21.9769 21.7761 21.6977 21.5281 21.3451 21.5281C20.9925 21.5281 20.7133 21.7829 20.7133 22.0998C20.7133 22.4234 20.9851 22.6645 21.3451 22.6645C21.705 22.6646 21.9769 22.4166 21.9769 22.0998ZM6.5925 14.3236C6.5925 14.0067 6.31335 13.7588 5.96073 13.7588C5.6081 13.7588 5.32895 14.0068 5.32895 14.3236C5.32895 14.6473 5.60073 14.8953 5.96073 14.8953C6.32072 14.8954 6.5925 14.6543 6.5925 14.3236ZM7.7387 14.8954C7.3787 14.8954 7.10693 14.6474 7.10693 14.3237C7.10693 14.0068 7.38607 13.759 7.7387 13.759C8.09869 13.759 8.37784 14.0069 8.37784 14.3237C8.37784 14.6543 8.10594 14.8954 7.7387 14.8954Z" fill="white"/>
<path d="M38.8972 23.973H37.9055V31.1775H38.8972V23.973ZM20.1776 27.7405H23.3C23.7114 27.7405 24.0199 27.8507 24.2036 28.0641C24.3726 28.2639 24.4534 28.5119 24.4534 28.8838V30.2544H20.1702V27.7404H20.1776V27.7405ZM31.8296 29.3523C31.8296 30.3097 31.0435 31.0328 30.0003 31.0328C29.0157 31.0328 28.237 30.2959 28.237 29.3523C28.237 28.4017 29.0085 27.6579 30.0003 27.6579C31.0655 27.6579 31.8296 28.3673 31.8296 29.3523ZM32.028 31.1912L32.0428 31.1774H36.0542V23.9729H35.0624V30.2544H32.6526L32.6746 30.1924C32.7701 29.9307 32.8216 29.6483 32.8216 29.3591C32.8216 27.8644 31.6094 26.728 30.0077 26.728C28.4649 26.728 27.26 27.8851 27.26 29.3591C27.26 29.6415 27.3041 29.9238 27.3996 30.1924L27.4216 30.2544H25.4453V28.8838C25.4453 28.2777 25.2764 27.768 24.9603 27.4374C24.5489 26.9966 24.0567 26.8107 23.3 26.8107H20.1776V26.2665H19.1858V30.2476H16.8055V23.9661H15.8137V31.1706H28.0241L28.0388 31.1844C28.5605 31.6803 29.2584 31.9558 30.0005 31.9558C30.7717 31.9627 31.5063 31.6803 32.028 31.1912ZM22.8591 25.4194C22.8591 25.0957 22.5726 24.8408 22.2052 24.8408C21.8379 24.8408 21.5514 25.0956 21.5514 25.4194C21.5514 25.7499 21.8305 25.9979 22.2052 25.9979C22.58 26.0048 22.8591 25.7569 22.8591 25.4194ZM13.1687 24.9648C13.1687 24.6412 12.8822 24.3863 12.5148 24.3863C12.1474 24.3863 11.8609 24.6411 11.8609 24.9648C11.8609 25.2954 12.1401 25.5434 12.5148 25.5434C12.8895 25.5502 13.1687 25.2954 13.1687 24.9648ZM7.28383 27.1964V30.2546H6.68142C5.74839 30.2546 4.80799 29.7863 4.80799 28.7324C4.80799 27.7888 5.77776 27.1964 6.68142 27.1964H7.28383ZM13.3302 27.1964V30.2546H11.8755L11.8608 30.2477C11.2143 29.8896 10.8395 29.3385 10.8395 28.7186C10.8395 27.9817 11.4713 27.1964 12.6395 27.1964H13.3302ZM14.3221 31.1775V26.2735H12.9556C11.0748 26.2735 9.86263 27.2309 9.86263 28.7186C9.86263 29.2765 10.0537 29.7655 10.4283 30.1719L10.5018 30.2477H8.28309V25.8396H7.28395V26.2665H6.98269C5.11662 26.2665 3.81622 27.279 3.81622 28.7254C3.81622 29.9101 4.64642 31.1706 6.98269 31.1706H14.3221V31.1775ZM6.61532 24.6411C6.61532 24.3242 6.33617 24.0763 5.98355 24.0763C5.63093 24.0763 5.35178 24.3243 5.35178 24.6411C5.35178 24.9647 5.62356 25.2127 5.98355 25.2127C6.34355 25.2127 6.61532 24.9648 6.61532 24.6411ZM7.7614 25.2127C7.40141 25.2127 7.12963 24.9647 7.12963 24.6411C7.12963 24.3242 7.40878 24.0763 7.7614 24.0763C8.1214 24.0763 8.40055 24.3243 8.40055 24.6411C8.40055 24.9648 8.12877 25.2127 7.7614 25.2127Z" fill="white"/>
<path d="M40.0212 50.7728H2.67722C1.50178 50.7728 0.546631 49.8774 0.546631 48.7754V37.8309C0.546631 36.7289 1.50178 35.8335 2.67722 35.8335H40.0212C41.1966 35.8335 42.1518 36.7289 42.1518 37.8309V48.7754C42.1518 49.8774 41.1966 50.7728 40.0212 50.7728Z" fill="#D4A007"/>
<path d="M9.68569 46.083L12.2056 38.1277H15.7321C14.5639 41.4268 12.0513 48.4936 12.022 48.4936H7.34942C7.32006 48.4936 4.80748 41.4268 3.63928 38.1277H7.16574L9.68569 46.083Z" fill="white"/>
<path d="M39.0589 38.1277H27.3627L28.2444 40.504H31.9765V48.4868H35.3341V40.504H39.0589V38.1277Z" fill="white"/>
<path d="M27.1932 41.9224L26.8332 41.1924C24.9965 42.322 21.9549 45.7106 21.9549 45.7106L20.8381 44.5329L20.434 45.814L20.3826 46C20.8087 46.5717 21.9695 48.4864 21.9695 48.4864C24.6659 43.906 27.1932 41.9224 27.1932 41.9224Z" fill="#005B47"/>
<path d="M21.5511 40.5315L22.6972 44.1681C23.3952 43.4449 24.3208 42.5289 25.2025 41.7781C24.4752 39.7394 23.8947 38.1277 23.8801 38.1277H19.2076C19.1782 38.1277 16.6656 45.1944 15.4974 48.4936H19.0239L21.5511 40.5315Z" fill="white"/>
<path d="M23.5793 46.9295L24.0715 48.4862H27.598C27.1645 47.274 26.5548 45.552 25.9524 43.8577C25.2912 44.6015 24.461 45.6208 23.5793 46.9295Z" fill="white"/>
</svg>
