<svg width="79" height="48" viewBox="0 0 79 48" fill="none" xmlns="http://www.w3.org/2000/svg">
<path d="M39.4482 19.759C39.6486 19.6725 39.7735 19.5328 39.8461 19.3429C39.9187 19.1335 39.9362 18.8738 39.9362 18.5415V15.6902C39.9362 15.0117 39.8113 14.3861 39.576 13.8304C39.3407 13.2551 39.0328 12.7524 38.6174 12.3168C38.2021 11.8644 37.7315 11.4818 37.1883 11.1858C36.6451 10.873 36.0671 10.6301 35.4513 10.4737C34.8181 10.3173 34.1674 10.2307 33.5342 10.2307C32.901 10.2307 32.2329 10.3006 31.5997 10.4402C30.9665 10.5798 30.3681 10.7697 29.8278 11.0657L29.7029 11.1355V6.94387C29.7029 6.09213 29.2498 5.65649 28.3638 5.65649C27.4779 5.65649 27.0074 6.09213 27.0074 6.94387L27.0248 17.3435H24.672V11.2221C24.672 10.7865 24.5819 10.4737 24.3466 10.2475C24.1114 10.0213 23.786 9.93473 23.3503 9.93473C22.4441 9.93473 21.9938 10.3704 21.9938 11.2221V17.3435H8.04258C7.39193 17.3435 6.88361 17.2569 6.506 17.0837C6.14291 16.9106 5.90763 16.6677 5.74497 16.3521C5.59973 16.0561 5.52712 15.7098 5.52712 15.3077C5.52712 14.9055 5.5823 14.5257 5.74497 14.1934C5.8902 13.8639 6.14291 13.5846 6.52343 13.3752C6.90394 13.1658 7.40936 13.0624 8.04258 13.0624H9.48912C9.95968 13.0624 10.3024 12.9396 10.5203 12.7497C10.7556 12.5402 10.863 12.2442 10.863 11.8113C10.863 11.3785 10.7556 11.0797 10.5203 10.8535C10.285 10.6273 9.95968 10.524 9.48912 10.524H7.95254C7.02884 10.524 6.23296 10.6468 5.56488 10.8898C4.91422 11.116 4.38847 11.4455 3.99053 11.8812C3.59259 12.2973 3.30212 12.786 3.12203 13.3584C2.94194 13.9142 2.86932 14.5062 2.86932 15.1513C2.86932 15.7964 2.94194 16.4024 3.12203 16.9776C3.17722 17.1675 3.26726 17.3602 3.35731 17.5529C2.43361 17.7623 1.71034 18.1449 1.1875 18.7174C-0.00633253 19.9852 -0.296802 21.6357 0.301565 23.6882H3.36021C3.00003 23.409 2.78218 22.9929 2.72699 22.4371C2.6718 21.9317 2.74442 21.4625 2.94484 21.0269C3.27017 20.2785 4.04862 19.8959 5.25988 19.8959H23.1151C23.6408 19.8959 24.0184 19.7563 24.274 19.477C24.3466 19.4239 24.4018 19.3374 24.4541 19.2508C24.6487 19.6781 25.038 19.8847 25.6305 19.8931H25.6654H38.5477C38.9457 19.8931 39.2536 19.84 39.4511 19.7535M37.2609 17.3351H29.7V15.196C29.7378 14.8999 29.8249 14.6207 29.9905 14.3777C30.2083 14.0482 30.4959 13.769 30.859 13.5428C31.2192 13.3166 31.6374 13.1602 32.0877 13.0373C32.5408 12.9144 33.0288 12.8642 33.5342 12.8642C34.0048 12.8642 34.4579 12.934 34.9081 13.054C35.3438 13.1769 35.7389 13.3501 36.102 13.6098C36.465 13.8527 36.7526 14.1487 36.953 14.5146C37.1535 14.8636 37.2609 15.2797 37.2609 15.7489V17.3323V17.3351ZM44.0637 7.16169V18.6057C44.0637 19.0413 43.9563 19.3541 43.721 19.5803C43.5031 19.7898 43.1778 19.8931 42.7247 19.8931C42.2715 19.8931 41.9462 19.7898 41.7284 19.5803C41.4931 19.3541 41.3856 19.0413 41.3856 18.6057V7.16728C41.3856 6.31554 41.8387 5.8799 42.7247 5.8799C43.6106 5.8799 44.0637 6.31554 44.0637 7.16728M5.50969 25.4894H1.58254C0.551369 25.4894 0.00819096 25.9418 0.00819096 26.9863V38.0309C0.00819096 39.0055 0.513608 39.4915 1.50992 39.4915C2.50623 39.4915 3.01165 39.0055 3.01165 38.0309V34.6407H5.59973C8.35048 34.6407 10.4302 32.6915 10.4302 30.1C10.4302 27.3688 8.36791 25.4922 5.50969 25.4922M5.54454 31.77H3.01165V28.3602H5.25407C6.64542 28.3602 7.3716 29.0025 7.3716 30.0804C7.3716 31.1584 6.64833 31.7672 5.54454 31.7672M19.5016 30.4463C19.5016 31.1779 18.8684 31.837 18.0173 31.837C17.7646 31.837 17.5119 31.837 17.3289 31.7839C17.1837 31.7672 17.0762 31.7309 16.8961 31.7309C16.1728 31.7309 15.3595 32.3061 15.3595 33.0881V38.0979C15.3595 39.0195 14.889 39.4887 13.9304 39.4887C12.9719 39.4887 12.4839 39.0195 12.4839 38.0979V30.4965C12.4839 29.5219 12.9719 29.0528 13.9304 29.0528C14.491 29.0528 15.0719 29.4018 15.1242 30.2368C15.4321 29.6448 16.6608 28.9159 17.4393 28.9159C18.941 28.9159 19.5016 29.6979 19.5016 30.4463ZM24.8288 24.9281C24.8288 25.8664 24.123 26.545 23.147 26.545C22.2233 26.545 21.4652 25.8329 21.4652 24.9281C21.4652 24.0233 22.2262 23.3447 23.147 23.3447C24.0678 23.3447 24.8288 24.0401 24.8288 24.9281ZM24.6487 30.5524V38.084C24.6487 39.0223 24.1607 39.4915 23.2022 39.4915C22.2436 39.4915 21.7557 39.0223 21.7557 38.084V30.5524C21.7557 29.6141 22.2262 29.1617 23.1848 29.1617C24.1433 29.1617 24.6487 29.6141 24.6487 30.5524ZM35.7098 32.5882V38.1007C35.7098 39.0223 35.2218 39.4915 34.2459 39.4915C33.2699 39.4915 32.7993 39.0223 32.7993 38.1007V33.0908C32.7993 32.0129 32.0935 31.4739 31.4051 31.4739C30.6818 31.4739 29.9411 32.0297 29.9411 33.0908V38.1007C29.9411 39.0223 29.4531 39.4915 28.4771 39.4915C27.5534 39.4915 27.0829 39.0223 27.0829 38.1007V30.5189C27.0829 29.7537 27.5534 29.0584 28.4771 29.0584C29.4531 29.0584 29.9411 29.7537 29.9411 30.329C30.5917 29.5806 31.4051 29.0248 32.5466 29.0248C34.0106 29.0248 35.7127 29.9464 35.7127 32.591M41.7109 31.5465V35.8248C41.7109 36.5732 41.7458 36.939 42.1089 36.939C43.1226 36.939 43.6658 37.3747 43.6658 38.2962C43.6658 39.1647 43.1226 39.6367 42.1089 39.6367C39.4307 39.6367 38.8149 38.2097 38.8149 35.8276V31.513C38.0365 31.4432 37.5107 31.1835 37.5107 30.3653C37.5107 29.5471 38.0365 29.3404 38.8149 29.2343V28.5222C38.8149 27.6006 39.2855 27.1482 40.2441 27.1482C41.2026 27.1482 41.708 27.6006 41.708 28.5222V29.2343H42.5213C43.5176 29.2343 44.0056 29.4437 44.0056 30.382C44.0056 31.3203 43.5351 31.5465 42.5417 31.5465H41.708H41.7109Z" fill="#390089"/>
<path d="M66.7318 3.07237L76.2824 12.2544V30.7134C76.2824 32.0594 75.1438 33.1541 73.7437 33.1541H66.3164C61.9739 33.1541 58.4417 36.5499 58.4417 40.7248V42.4785C58.4417 43.8246 57.3031 44.9193 55.903 44.9193H55.5196C54.1196 44.9193 52.9809 43.8246 52.9809 42.4785V5.51588C52.9809 4.16985 54.1196 3.07516 55.5196 3.07516H66.7318M67.8355 0.511566H55.5196C52.644 0.511566 50.3115 2.75401 50.3115 5.51867V42.4869C50.3115 45.2516 52.644 47.4912 55.5196 47.4912H55.903C58.7787 47.4912 61.1112 45.2488 61.1112 42.4869V40.7332C61.1112 37.9685 63.4436 35.7261 66.3193 35.7261H73.7466C76.6222 35.7261 78.9547 33.4836 78.9547 30.719V11.1932L67.8355 0.508774V0.511566Z" fill="#390089"/>
<path d="M67.836 0.508774L78.9494 11.1932H70.4386C69.0008 11.1932 67.836 10.0734 67.836 8.69105V0.508774Z" fill="#D1D3D4"/>
<path d="M65.2326 9.52323H55.7807C55.0604 9.52323 54.4794 8.96192 54.4794 8.27215C54.4794 7.58239 55.0633 7.02108 55.7807 7.02108H65.2326C65.9501 7.02108 66.5339 7.58239 66.5339 8.27215C66.5339 8.96192 65.9501 9.52323 65.2326 9.52323Z" fill="#EEDC11"/>
<path d="M73.4791 16.0843H55.7807C55.0633 16.0843 54.4794 15.523 54.4794 14.8332C54.4794 14.1435 55.0633 13.5822 55.7807 13.5822H73.4791C74.1965 13.5822 74.7804 14.1435 74.7804 14.8332C74.7804 15.523 74.1965 16.0843 73.4791 16.0843Z" fill="#D9488F"/>
<path d="M73.4791 22.647H55.7807C55.0633 22.647 54.4794 22.0856 54.4794 21.3959C54.4794 20.7061 55.0633 20.1448 55.7807 20.1448H73.4791C74.1965 20.1448 74.7804 20.7061 74.7804 21.3959C74.7804 22.0856 74.1965 22.647 73.4791 22.647Z" fill="#8259A5"/>
<path d="M73.4791 29.2112H55.7807C55.0633 29.2112 54.4794 28.6499 54.4794 27.9601C54.4794 27.2703 55.0633 26.709 55.7807 26.709H73.4791C74.1965 26.709 74.7804 27.2703 74.7804 27.9601C74.7804 28.6499 74.1965 29.2112 73.4791 29.2112Z" fill="#6ACBE1"/>
</svg>
