<svg width="21" height="21" viewBox="0 0 21 21" fill="none" xmlns="http://www.w3.org/2000/svg">
<path d="M15.4023 6.42157C15.4023 7.63144 14.2266 8.74628 12.4604 10.4917C11.3242 11.6146 9.48034 11.6133 8.34349 10.491C6.57855 8.74671 5.40224 7.63124 5.40234 6.42136C5.40244 5.21148 5.69759 4.96878 8.40941 2.28878C8.67035 2.02867 9.11918 2.21153 9.11918 2.57778L9.11934 5.33766C9.11934 6.03818 9.69301 6.60703 10.4018 6.60698C11.1107 6.60692 11.6853 6.03903 11.6855 5.3385L11.6861 2.57858C11.6862 2.21233 12.1351 2.02939 12.396 2.28945C15.1073 4.96902 15.4024 5.21169 15.4023 6.42157Z" stroke="#141B34" stroke-width="1.25"/>
<path d="M12.9023 10.5V16.471C12.9023 17.7757 11.7831 18.8333 10.4023 18.8333C9.02159 18.8333 7.90234 17.7757 7.90234 16.471V10.5" stroke="#141B34" stroke-width="1.25" stroke-linecap="round"/>
<path d="M10.4076 16.3329L10.4023 16.3382" stroke="#141B34" stroke-width="1.66667" stroke-linecap="round" stroke-linejoin="round"/>
</svg>
