<svg width="21" height="21" viewBox="0 0 21 21" fill="none" xmlns="http://www.w3.org/2000/svg">
<path d="M14.569 3.83329H17.9024M14.569 3.83329C14.569 4.30011 15.8143 5.17228 16.2357 5.49996M14.569 3.83329C14.569 3.36648 15.8143 2.49431 16.2357 2.16663" stroke="#141B34" stroke-width="1.5" stroke-linecap="round" stroke-linejoin="round"/>
<path d="M6.23568 3.83329H2.90234M6.23568 3.83329C6.23568 3.36648 4.99043 2.49431 4.56901 2.16663M6.23568 3.83329C6.23568 4.30011 4.99043 5.17228 4.56901 5.49996" stroke="#141B34" stroke-width="1.5" stroke-linecap="round" stroke-linejoin="round"/>
<path d="M8.59803 18.8333V18.0427C8.59803 17.5048 8.42411 16.9812 8.10206 16.5495L5.05408 12.4638C4.70254 11.9925 4.42178 11.408 4.65386 10.8682C5.02956 9.99454 6.08951 9.42696 7.3869 10.7369L8.7179 12.1614V3.47544C8.76478 1.77281 11.5048 1.68841 11.6219 3.47544V8.42546C12.8553 8.26618 18.6653 9.13571 17.8184 12.8192C17.7782 12.9942 17.738 13.1719 17.6988 13.347C17.5274 14.1127 17.0209 15.4772 16.4623 16.275C15.8808 17.1055 16.0859 17.9326 16.0859 18.8333" stroke="#141B34" stroke-width="1.5" stroke-linecap="round" stroke-linejoin="round"/>
</svg>
