<svg width="78" height="78" viewBox="0 0 78 78" fill="none" xmlns="http://www.w3.org/2000/svg">
<g clip-path="url(#clip0_38_1883)">
<rect x="11.1833" y="10.8226" width="206.398" height="295.396" fill="#ECECEC"/>
<path d="M4.52954 4.24585V2.89585H3.17954V4.24585H4.52954ZM5.87954 58.7818V57.0775H3.17954V58.7818H5.87954ZM5.87954 53.669V50.2605H3.17954V53.669H5.87954ZM5.87954 46.852V43.4435H3.17954V46.852H5.87954ZM5.87954 40.035V36.6265H3.17954V40.035H5.87954ZM5.87954 33.2181V29.8096H3.17954V33.2181H5.87954ZM5.87954 26.4011V22.9926H3.17954V26.4011H5.87954ZM5.87954 19.5841V16.1756H3.17954V19.5841H5.87954ZM5.87954 12.7671V9.3586H3.17954V12.7671H5.87954ZM5.87954 5.9501V4.24585H3.17954V5.9501H5.87954ZM4.52954 5.59585H6.06782V2.89585H4.52954V5.59585ZM9.14439 5.59585H12.221V2.89585H9.14439V5.59585ZM15.2975 5.59585H18.3741V2.89585H15.2975V5.59585ZM21.4507 5.59585H24.5272V2.89585H21.4507V5.59585ZM27.6038 5.59585H30.6804V2.89585H27.6038V5.59585ZM33.7569 5.59585H36.8335V2.89585H33.7569V5.59585ZM39.9101 5.59585H42.9866V2.89585H39.9101V5.59585ZM46.0632 5.59585H49.1398V2.89585H46.0632V5.59585ZM52.2163 5.59585H53.7546V2.89585H52.2163V5.59585ZM4.52954 4.24585V2.89585H3.17954V4.24585H4.52954ZM5.87954 58.7818V57.0775H3.17954V58.7818H5.87954ZM5.87954 53.669V50.2605H3.17954V53.669H5.87954ZM5.87954 46.852V43.4435H3.17954V46.852H5.87954ZM5.87954 40.035V36.6265H3.17954V40.035H5.87954ZM5.87954 33.2181V29.8096H3.17954V33.2181H5.87954ZM5.87954 26.4011V22.9926H3.17954V26.4011H5.87954ZM5.87954 19.5841V16.1756H3.17954V19.5841H5.87954ZM5.87954 12.7671V9.3586H3.17954V12.7671H5.87954ZM5.87954 5.9501V4.24585H3.17954V5.9501H5.87954ZM4.52954 5.59585H6.06782V2.89585H4.52954V5.59585ZM9.14439 5.59585H12.221V2.89585H9.14439V5.59585ZM15.2975 5.59585H18.3741V2.89585H15.2975V5.59585ZM21.4507 5.59585H24.5272V2.89585H21.4507V5.59585ZM27.6038 5.59585H30.6804V2.89585H27.6038V5.59585ZM33.7569 5.59585H36.8335V2.89585H33.7569V5.59585ZM39.9101 5.59585H42.9866V2.89585H39.9101V5.59585ZM46.0632 5.59585H49.1398V2.89585H46.0632V5.59585ZM52.2163 5.59585H53.7546V2.89585H52.2163V5.59585Z" fill="black"/>
</g>
<defs>
<clipPath id="clip0_38_1883">
<path d="M0.36731 7.3511C0.36731 3.34985 3.61096 0.106201 7.61221 0.106201H70.4013C74.4026 0.106201 77.6462 3.34985 77.6462 7.3511V77.3852H7.61222C3.61097 77.3852 0.36731 74.1415 0.36731 70.1403V7.3511Z" fill="white"/>
</clipPath>
</defs>
</svg>
