<svg width="78" height="78" viewBox="0 0 78 78" fill="none" xmlns="http://www.w3.org/2000/svg">
<g clip-path="url(#clip0_38_1891)">
<rect x="11.0135" y="10.8226" width="206.398" height="295.396" rx="23.2441" fill="#ECECEC"/>
<path d="M5.70974 58.7818V56.826H3.00974V58.7818H5.70974ZM5.70974 52.9145V49.0031H3.00974V52.9145H5.70974ZM5.70974 45.0916V41.1801H3.00974V45.0916H5.70974ZM5.70974 37.2686V33.3571H3.00974V37.2686H5.70974ZM5.70974 29.4457V27.4899H3.00974V29.4457H5.70974ZM5.70974 27.4899C5.70974 26.7646 5.74496 26.048 5.81372 25.3415L3.12641 25.08C3.04921 25.8732 3.00974 26.6772 3.00974 27.4899H5.70974ZM6.6469 21.1317C7.06618 19.7478 7.61892 18.4216 8.29028 17.1682L5.91019 15.8934C5.15578 17.3019 4.53436 18.7926 4.06289 20.3488L6.6469 21.1317ZM10.6783 13.6008C11.5889 12.4925 12.6063 11.4751 13.7147 10.5644L12.0007 8.47824C10.7564 9.50052 9.61441 10.6426 8.59213 11.8868L10.6783 13.6008ZM17.2821 8.1764C18.5355 7.50503 19.8616 6.95229 21.2456 6.53301L20.4627 3.949C18.9065 4.42047 17.4158 5.04189 16.0073 5.79631L17.2821 8.1764ZM25.4554 5.69983C26.1618 5.63107 26.8785 5.59585 27.6038 5.59585V2.89585C26.791 2.89585 25.9871 2.93532 25.1938 3.01252L25.4554 5.69983ZM27.6038 5.59585H29.2276V2.89585H27.6038V5.59585ZM32.4752 5.59585H35.7229V2.89585H32.4752V5.59585ZM38.9705 5.59585H42.2181V2.89585H38.9705V5.59585ZM45.4657 5.59585H48.7134V2.89585H45.4657V5.59585ZM51.961 5.59585H53.5848V2.89585H51.961V5.59585ZM5.70974 58.7818V56.826H3.00974V58.7818H5.70974ZM5.70974 52.9145V49.0031H3.00974V52.9145H5.70974ZM5.70974 45.0916V41.1801H3.00974V45.0916H5.70974ZM5.70974 37.2686V33.3571H3.00974V37.2686H5.70974ZM5.70974 29.4457V27.4899H3.00974V29.4457H5.70974ZM5.70974 27.4899C5.70974 26.7646 5.74496 26.048 5.81372 25.3415L3.12641 25.08C3.04921 25.8732 3.00974 26.6772 3.00974 27.4899H5.70974ZM6.6469 21.1317C7.06618 19.7478 7.61892 18.4216 8.29028 17.1682L5.91019 15.8934C5.15578 17.3019 4.53436 18.7926 4.06289 20.3488L6.6469 21.1317ZM10.6783 13.6008C11.5889 12.4925 12.6063 11.4751 13.7147 10.5644L12.0007 8.47824C10.7564 9.50052 9.61441 10.6426 8.59213 11.8868L10.6783 13.6008ZM17.2821 8.1764C18.5355 7.50503 19.8616 6.95229 21.2456 6.53301L20.4627 3.949C18.9065 4.42047 17.4158 5.04189 16.0073 5.79631L17.2821 8.1764ZM25.4554 5.69983C26.1618 5.63107 26.8785 5.59585 27.6038 5.59585V2.89585C26.791 2.89585 25.9871 2.93532 25.1938 3.01252L25.4554 5.69983ZM27.6038 5.59585H29.2276V2.89585H27.6038V5.59585ZM32.4752 5.59585H35.7229V2.89585H32.4752V5.59585ZM38.9705 5.59585H42.2181V2.89585H38.9705V5.59585ZM45.4657 5.59585H48.7134V2.89585H45.4657V5.59585ZM51.961 5.59585H53.5848V2.89585H51.961V5.59585Z" fill="black"/>
</g>
<defs>
<clipPath id="clip0_38_1891">
<path d="M0.19751 7.3511C0.19751 3.34985 3.44116 0.106201 7.44241 0.106201H70.2315C74.2328 0.106201 77.4764 3.34985 77.4764 7.3511V77.3852H7.44242C3.44117 77.3852 0.19751 74.1415 0.19751 70.1403V7.3511Z" fill="white"/>
</clipPath>
</defs>
</svg>
