<svg width="132" height="87" viewBox="0 0 132 87" fill="none" xmlns="http://www.w3.org/2000/svg">
<g filter="url(#filter0_d_38_706)">
<rect x="3.95215" y="1.82265" width="124.096" height="79.8378" rx="6.20677" fill="#F7F7F7"/>
<path d="M19.54 13.4023C19.5797 13.3851 19.6045 13.3574 19.6189 13.3197C19.6333 13.2781 19.6368 13.2266 19.6368 13.1606V12.5947C19.6368 12.46 19.612 12.3359 19.5653 12.2256C19.5186 12.1114 19.4575 12.0117 19.3751 11.9252C19.2926 11.8354 19.1992 11.7595 19.0914 11.7007C18.9836 11.6387 18.8689 11.5904 18.7467 11.5594C18.621 11.5284 18.4919 11.5112 18.3662 11.5112C18.2405 11.5112 18.1079 11.525 17.9823 11.5528C17.8566 11.5805 17.7378 11.6182 17.6306 11.6769L17.6058 11.6908V10.8588C17.6058 10.6898 17.5159 10.6033 17.3401 10.6033C17.1642 10.6033 17.0708 10.6898 17.0708 10.8588L17.0743 12.9228H16.6073V11.7079C16.6073 11.6215 16.5895 11.5594 16.5428 11.5145C16.4961 11.4696 16.4315 11.4524 16.345 11.4524C16.1652 11.4524 16.0758 11.5389 16.0758 11.7079V12.9228H13.3069C13.1778 12.9228 13.0769 12.9057 13.0019 12.8713C12.9299 12.8369 12.8832 12.7887 12.8509 12.7261C12.8221 12.6673 12.8077 12.5986 12.8077 12.5188C12.8077 12.439 12.8186 12.3636 12.8509 12.2977C12.8797 12.2323 12.9299 12.1768 13.0054 12.1353C13.0809 12.0937 13.1812 12.0732 13.3069 12.0732H13.594C13.6874 12.0732 13.7554 12.0488 13.7987 12.0111C13.8453 11.9695 13.8667 11.9108 13.8667 11.8249C13.8667 11.739 13.8453 11.6797 13.7987 11.6348C13.752 11.5899 13.6874 11.5694 13.594 11.5694H13.289C13.1057 11.5694 12.9477 11.5938 12.8152 11.642C12.686 11.6869 12.5817 11.7523 12.5027 11.8387C12.4237 11.9213 12.3661 12.0183 12.3303 12.1319C12.2946 12.2422 12.2802 12.3597 12.2802 12.4878C12.2802 12.6158 12.2946 12.7361 12.3303 12.8502C12.3413 12.8879 12.3591 12.9262 12.377 12.9644C12.1937 13.006 12.0501 13.0819 11.9464 13.1955C11.7094 13.4472 11.6518 13.7747 11.7705 14.1821H12.3776C12.3061 14.1267 12.2629 14.0441 12.2519 13.9338C12.241 13.8335 12.2554 13.7403 12.2952 13.6539C12.3597 13.5053 12.5142 13.4294 12.7546 13.4294H16.2983C16.4027 13.4294 16.4776 13.4017 16.5283 13.3463C16.5428 13.3358 16.5537 13.3186 16.5641 13.3014C16.6027 13.3862 16.68 13.4272 16.7976 13.4289H16.8045H19.3612C19.4402 13.4289 19.5013 13.4183 19.5405 13.4012M19.1059 12.9212H17.6052V12.4966C17.6127 12.4379 17.63 12.3825 17.6629 12.3342C17.7061 12.2688 17.7632 12.2134 17.8353 12.1685C17.9067 12.1236 17.9898 12.0926 18.0791 12.0682C18.1691 12.0438 18.2659 12.0338 18.3662 12.0338C18.4596 12.0338 18.5495 12.0477 18.6389 12.0715C18.7254 12.0959 18.8038 12.1303 18.8758 12.1818C18.9479 12.23 19.005 12.2888 19.0447 12.3614C19.0845 12.4307 19.1059 12.5133 19.1059 12.6064V12.9206V12.9212ZM20.456 10.9021V13.1734C20.456 13.2598 20.4347 13.3219 20.388 13.3668C20.3447 13.4084 20.2802 13.4289 20.1902 13.4289C20.1003 13.4289 20.0357 13.4084 19.9925 13.3668C19.9458 13.3219 19.9245 13.2598 19.9245 13.1734V10.9032C19.9245 10.7341 20.0144 10.6477 20.1902 10.6477C20.3661 10.6477 20.456 10.7341 20.456 10.9032M12.8042 14.5396H12.0248C11.8201 14.5396 11.7123 14.6294 11.7123 14.8366V17.0287C11.7123 17.2221 11.8126 17.3185 12.0104 17.3185C12.2081 17.3185 12.3084 17.2221 12.3084 17.0287V16.3558H12.8221C13.368 16.3558 13.7808 15.969 13.7808 15.4546C13.7808 14.9126 13.3715 14.5401 12.8042 14.5401M12.8111 15.7861H12.3084V15.1093H12.7535C13.0296 15.1093 13.1737 15.2368 13.1737 15.4507C13.1737 15.6647 13.0302 15.7855 12.8111 15.7855M15.5812 15.5233C15.5812 15.6686 15.4555 15.7994 15.2866 15.7994C15.2364 15.7994 15.1863 15.7994 15.15 15.7888C15.1211 15.7855 15.0998 15.7783 15.0641 15.7783C14.9205 15.7783 14.7591 15.8925 14.7591 16.0477V17.042C14.7591 17.2249 14.6657 17.318 14.4755 17.318C14.2852 17.318 14.1884 17.2249 14.1884 17.042V15.5333C14.1884 15.3399 14.2852 15.2468 14.4755 15.2468C14.5867 15.2468 14.702 15.3161 14.7124 15.4818C14.7735 15.3643 15.0174 15.2196 15.1719 15.2196C15.4699 15.2196 15.5812 15.3748 15.5812 15.5233ZM16.6385 14.4282C16.6385 14.6144 16.4984 14.7491 16.3047 14.7491C16.1213 14.7491 15.9709 14.6077 15.9709 14.4282C15.9709 14.2486 16.1219 14.1139 16.3047 14.1139C16.4874 14.1139 16.6385 14.2519 16.6385 14.4282ZM16.6027 15.5444V17.0392C16.6027 17.2254 16.5059 17.3185 16.3156 17.3185C16.1254 17.3185 16.0285 17.2254 16.0285 17.0392V15.5444C16.0285 15.3582 16.1219 15.2684 16.3122 15.2684C16.5024 15.2684 16.6027 15.3582 16.6027 15.5444ZM18.798 15.9485V17.0425C18.798 17.2254 18.7012 17.3185 18.5075 17.3185C18.3138 17.3185 18.2204 17.2254 18.2204 17.0425V16.0482C18.2204 15.8343 18.0803 15.7273 17.9436 15.7273C17.8001 15.7273 17.6531 15.8376 17.6531 16.0482V17.0425C17.6531 17.2254 17.5562 17.3185 17.3625 17.3185C17.1792 17.3185 17.0858 17.2254 17.0858 17.0425V15.5378C17.0858 15.3859 17.1792 15.2479 17.3625 15.2479C17.5562 15.2479 17.6531 15.3859 17.6531 15.5001C17.7822 15.3515 17.9436 15.2412 18.1702 15.2412C18.4608 15.2412 18.7986 15.4241 18.7986 15.949M19.989 15.7417V16.5908C19.989 16.7394 19.996 16.812 20.068 16.812C20.2692 16.812 20.377 16.8984 20.377 17.0813C20.377 17.2537 20.2692 17.3474 20.068 17.3474C19.5365 17.3474 19.4143 17.0641 19.4143 16.5914V15.7351C19.2598 15.7212 19.1554 15.6697 19.1554 15.5073C19.1554 15.3449 19.2598 15.3039 19.4143 15.2828V15.1415C19.4143 14.9586 19.5077 14.8688 19.6979 14.8688C19.8882 14.8688 19.9885 14.9586 19.9885 15.1415V15.2828H20.1499C20.3476 15.2828 20.4445 15.3244 20.4445 15.5106C20.4445 15.6968 20.3511 15.7417 20.1539 15.7417H19.9885H19.989Z" fill="#390089"/>
<path d="M24.9555 10.09L26.851 11.9123V15.5759C26.851 15.843 26.625 16.0603 26.3471 16.0603H24.873C24.0112 16.0603 23.3101 16.7342 23.3101 17.5628V17.9109C23.3101 18.178 23.0842 18.3953 22.8063 18.3953H22.7302C22.4523 18.3953 22.2263 18.178 22.2263 17.9109V10.5749C22.2263 10.3078 22.4523 10.0905 22.7302 10.0905H24.9555M25.1745 9.58172H22.7302C22.1595 9.58172 21.6965 10.0268 21.6965 10.5755V17.9125C21.6965 18.4612 22.1595 18.9058 22.7302 18.9058H22.8063C23.377 18.9058 23.8399 18.4607 23.8399 17.9125V17.5645C23.8399 17.0158 24.3029 16.5707 24.8736 16.5707H26.3477C26.9184 16.5707 27.3813 16.1257 27.3813 15.577V11.7017L25.1745 9.58116V9.58172Z" fill="#390089"/>
<path d="M25.1743 9.58116L27.38 11.7017H25.6909C25.4055 11.7017 25.1743 11.4794 25.1743 11.2051V9.58116Z" fill="#D1D3D4"/>
<path d="M24.6576 11.3704H22.7817C22.6387 11.3704 22.5234 11.259 22.5234 11.1221C22.5234 10.9852 22.6393 10.8738 22.7817 10.8738H24.6576C24.8 10.8738 24.9159 10.9852 24.9159 11.1221C24.9159 11.259 24.8 11.3704 24.6576 11.3704Z" fill="#EEDC11"/>
<path d="M26.2943 12.6726H22.7817C22.6393 12.6726 22.5234 12.5612 22.5234 12.4243C22.5234 12.2874 22.6393 12.176 22.7817 12.176H26.2943C26.4367 12.176 26.5526 12.2874 26.5526 12.4243C26.5526 12.5612 26.4367 12.6726 26.2943 12.6726Z" fill="#D9488F"/>
<path d="M26.2943 13.9752H22.7817C22.6393 13.9752 22.5234 13.8638 22.5234 13.7269C22.5234 13.59 22.6393 13.4786 22.7817 13.4786H26.2943C26.4367 13.4786 26.5526 13.59 26.5526 13.7269C26.5526 13.8638 26.4367 13.9752 26.2943 13.9752Z" fill="#8259A5"/>
<path d="M26.2943 15.2778H22.7817C22.6393 15.2778 22.5234 15.1664 22.5234 15.0295C22.5234 14.8926 22.6393 14.7812 22.7817 14.7812H26.2943C26.4367 14.7812 26.5526 14.8926 26.5526 15.0295C26.5526 15.1664 26.4367 15.2778 26.2943 15.2778Z" fill="#6ACBE1"/>
<path d="M12.5959 33.6642H11.842L13.2145 29.7656H14.0864L15.4608 33.6642H14.7069L13.6657 30.5651H13.6352L12.5959 33.6642ZM12.6206 32.1356H14.6765V32.7028H12.6206V32.1356ZM15.9742 33.6642V29.7656H16.6633V31.2238H16.6919C16.7274 31.1527 16.7776 31.0772 16.8423 30.9972C16.907 30.916 16.9946 30.8469 17.105 30.7897C17.2154 30.7314 17.3562 30.7022 17.5276 30.7022C17.7535 30.7022 17.9571 30.7599 18.1386 30.8754C18.3214 30.9896 18.466 31.159 18.5726 31.3837C18.6805 31.607 18.7344 31.8811 18.7344 32.206C18.7344 32.5271 18.6818 32.7999 18.5764 33.0245C18.4711 33.2492 18.3277 33.4205 18.1462 33.5385C17.9648 33.6565 17.7592 33.7156 17.5295 33.7156C17.362 33.7156 17.223 33.6876 17.1126 33.6318C17.0022 33.576 16.9133 33.5087 16.8461 33.43C16.7801 33.3501 16.7287 33.2746 16.6919 33.2035H16.6519V33.6642H15.9742ZM16.65 32.2022C16.65 32.3913 16.6767 32.5569 16.73 32.699C16.7845 32.8412 16.8626 32.9522 16.9641 33.0322C17.0669 33.1108 17.1913 33.1502 17.3372 33.1502C17.4895 33.1502 17.617 33.1096 17.7198 33.0284C17.8226 32.9459 17.9 32.8336 17.9521 32.6914C18.0054 32.548 18.032 32.3849 18.032 32.2022C18.032 32.0207 18.006 31.8596 17.954 31.7187C17.9019 31.5778 17.8245 31.4674 17.7217 31.3875C17.6189 31.3075 17.4908 31.2675 17.3372 31.2675C17.19 31.2675 17.065 31.3062 16.9622 31.3837C16.8594 31.4611 16.7814 31.5696 16.7281 31.7092C16.676 31.8488 16.65 32.0131 16.65 32.2022ZM20.4053 33.7156C20.1756 33.7156 19.97 33.6565 19.7885 33.5385C19.6071 33.4205 19.4637 33.2492 19.3583 33.0245C19.253 32.7999 19.2003 32.5271 19.2003 32.206C19.2003 31.8811 19.2536 31.607 19.3602 31.3837C19.4681 31.159 19.6134 30.9896 19.7962 30.8754C19.9789 30.7599 20.1826 30.7022 20.4072 30.7022C20.5785 30.7022 20.7194 30.7314 20.8298 30.7897C20.9402 30.8469 21.0278 30.916 21.0925 30.9972C21.1572 31.0772 21.2074 31.1527 21.2429 31.2238H21.2714V29.7656H21.9624V33.6642H21.2848V33.2035H21.2429C21.2074 33.2746 21.156 33.3501 21.0887 33.43C21.0214 33.5087 20.9326 33.576 20.8222 33.6318C20.7118 33.6876 20.5728 33.7156 20.4053 33.7156ZM20.5976 33.1502C20.7435 33.1502 20.8679 33.1108 20.9707 33.0322C21.0735 32.9522 21.1515 32.8412 21.2048 32.699C21.2581 32.5569 21.2848 32.3913 21.2848 32.2022C21.2848 32.0131 21.2581 31.8488 21.2048 31.7092C21.1528 31.5696 21.0754 31.4611 20.9726 31.3837C20.8711 31.3062 20.7461 31.2675 20.5976 31.2675C20.444 31.2675 20.3158 31.3075 20.213 31.3875C20.1103 31.4674 20.0328 31.5778 19.9808 31.7187C19.9288 31.8596 19.9028 32.0207 19.9028 32.2022C19.9028 32.3849 19.9288 32.548 19.9808 32.6914C20.0341 32.8336 20.1122 32.9459 20.215 33.0284C20.319 33.1096 20.4466 33.1502 20.5976 33.1502ZM24.5604 32.4344V30.7402H25.2495V33.6642H24.5813V33.1445H24.5508C24.4848 33.3082 24.3763 33.4421 24.2253 33.5461C24.0756 33.6502 23.8909 33.7022 23.6714 33.7022C23.4798 33.7022 23.3103 33.6597 23.1631 33.5747C23.0172 33.4884 22.903 33.3634 22.8205 33.1997C22.738 33.0347 22.6968 32.8355 22.6968 32.602V30.7402H23.3858V32.4954C23.3858 32.6806 23.4366 32.8278 23.5381 32.937C23.6397 33.0461 23.7729 33.1007 23.9379 33.1007C24.0394 33.1007 24.1378 33.0759 24.2329 33.0265C24.3281 32.977 24.4062 32.9034 24.4671 32.8056C24.5293 32.7067 24.5604 32.5829 24.5604 32.4344ZM26.6472 29.7656V33.6642H25.9581V29.7656H26.6472ZM28.0449 29.7656V33.6642H27.3558V29.7656H28.0449ZM29.5949 33.7232C29.4096 33.7232 29.2427 33.6902 29.0942 33.6242C28.947 33.5569 28.8303 33.4579 28.744 33.3272C28.6589 33.1965 28.6164 33.0353 28.6164 32.8437C28.6164 32.6787 28.6469 32.5423 28.7078 32.4344C28.7687 32.3266 28.8518 32.2403 28.9572 32.1756C29.0625 32.1108 29.1811 32.062 29.3131 32.029C29.4464 31.9947 29.5841 31.97 29.7262 31.9547C29.8975 31.937 30.0365 31.9211 30.1431 31.9071C30.2497 31.8919 30.3271 31.8691 30.3753 31.8386C30.4248 31.8069 30.4496 31.758 30.4496 31.692V31.6806C30.4496 31.5372 30.4071 31.4262 30.322 31.3475C30.237 31.2688 30.1145 31.2295 29.9546 31.2295C29.7859 31.2295 29.652 31.2663 29.553 31.3399C29.4553 31.4135 29.3893 31.5004 29.355 31.6007L28.7116 31.5093C28.7624 31.3316 28.8461 31.1832 28.9629 31.0639C29.0796 30.9433 29.2224 30.8532 29.3912 30.7936C29.56 30.7326 29.7465 30.7022 29.9508 30.7022C30.0917 30.7022 30.2319 30.7187 30.3715 30.7517C30.5111 30.7847 30.6387 30.8392 30.7541 30.9154C30.8696 30.9903 30.9623 31.0924 31.0321 31.2219C31.1031 31.3513 31.1387 31.5131 31.1387 31.7073V33.6642H30.4762V33.2625H30.4534C30.4115 33.3437 30.3525 33.4199 30.2763 33.4909C30.2015 33.5607 30.1069 33.6172 29.9927 33.6603C29.8798 33.7022 29.7471 33.7232 29.5949 33.7232ZM29.7738 33.2168C29.9121 33.2168 30.0321 33.1895 30.1336 33.135C30.2351 33.0791 30.3131 33.0055 30.3677 32.9141C30.4236 32.8228 30.4515 32.7231 30.4515 32.6153V32.2707C30.4299 32.2885 30.3931 32.305 30.3411 32.3202C30.2903 32.3355 30.2332 32.3488 30.1697 32.3602C30.1063 32.3716 30.0435 32.3818 29.9813 32.3907C29.9191 32.3995 29.8652 32.4072 29.8195 32.4135C29.7167 32.4275 29.6247 32.4503 29.5435 32.482C29.4622 32.5138 29.3982 32.5582 29.3512 32.6153C29.3042 32.6711 29.2808 32.7435 29.2808 32.8323C29.2808 32.9592 29.3271 33.055 29.4197 33.1197C29.5124 33.1845 29.6304 33.2168 29.7738 33.2168ZM32.5207 31.9509V33.6642H31.8316V29.7656H32.5054V31.2371H32.5397C32.6082 31.0721 32.7142 30.942 32.8576 30.8469C33.0023 30.7504 33.1863 30.7022 33.4096 30.7022C33.6127 30.7022 33.7897 30.7447 33.9407 30.8297C34.0918 30.9147 34.2085 31.0391 34.291 31.2028C34.3748 31.3665 34.4166 31.5664 34.4166 31.8024V33.6642H33.7275V31.909C33.7275 31.7123 33.6768 31.5594 33.5753 31.4503C33.475 31.3399 33.3341 31.2847 33.1527 31.2847C33.0308 31.2847 32.9217 31.3113 32.8252 31.3646C32.7301 31.4167 32.6552 31.4922 32.6006 31.5912C32.5473 31.6901 32.5207 31.8101 32.5207 31.9509ZM36.4792 33.6642V29.7656H37.9716C38.2533 29.7656 38.4875 29.81 38.674 29.8989C38.8618 29.9864 39.0021 30.1064 39.0947 30.2586C39.1886 30.4109 39.2356 30.5835 39.2356 30.7764C39.2356 30.935 39.2051 31.0708 39.1442 31.1838C39.0833 31.2955 39.0014 31.3862 38.8986 31.456C38.7958 31.5258 38.681 31.5759 38.5541 31.6064V31.6445C38.6924 31.6521 38.825 31.6946 38.9519 31.772C39.0801 31.8481 39.1848 31.956 39.266 32.0956C39.3472 32.2352 39.3878 32.404 39.3878 32.602C39.3878 32.8037 39.339 32.9852 39.2413 33.1464C39.1436 33.3063 38.9963 33.4326 38.7996 33.5252C38.6029 33.6178 38.3555 33.6642 38.0572 33.6642H36.4792ZM37.1854 33.074H37.9449C38.2013 33.074 38.3859 33.0252 38.4989 32.9275C38.6131 32.8285 38.6702 32.7016 38.6702 32.5468C38.6702 32.4313 38.6416 32.3272 38.5845 32.2346C38.5274 32.1407 38.4462 32.067 38.3409 32.0137C38.2355 31.9592 38.1099 31.9319 37.964 31.9319H37.1854V33.074ZM37.1854 31.4236H37.884C38.0058 31.4236 38.1156 31.4014 38.2133 31.357C38.3111 31.3113 38.3878 31.2472 38.4437 31.1647C38.5008 31.081 38.5293 30.982 38.5293 30.8678C38.5293 30.7168 38.476 30.5924 38.3694 30.4947C38.2641 30.397 38.1074 30.3481 37.8992 30.3481H37.1854V31.4236ZM40.8132 33.7232C40.6279 33.7232 40.461 33.6902 40.3125 33.6242C40.1653 33.5569 40.0485 33.4579 39.9623 33.3272C39.8772 33.1965 39.8347 33.0353 39.8347 32.8437C39.8347 32.6787 39.8652 32.5423 39.9261 32.4344C39.987 32.3266 40.0701 32.2403 40.1755 32.1756C40.2808 32.1108 40.3994 32.062 40.5314 32.029C40.6647 31.9947 40.8024 31.97 40.9445 31.9547C41.1158 31.937 41.2548 31.9211 41.3614 31.9071C41.468 31.8919 41.5454 31.8691 41.5936 31.8386C41.6431 31.8069 41.6679 31.758 41.6679 31.692V31.6806C41.6679 31.5372 41.6254 31.4262 41.5403 31.3475C41.4553 31.2688 41.3328 31.2295 41.1729 31.2295C41.0041 31.2295 40.8703 31.2663 40.7713 31.3399C40.6736 31.4135 40.6076 31.5004 40.5733 31.6007L39.9299 31.5093C39.9807 31.3316 40.0644 31.1832 40.1812 31.0639C40.2979 30.9433 40.4407 30.8532 40.6095 30.7936C40.7783 30.7326 40.9648 30.7022 41.1691 30.7022C41.31 30.7022 41.4502 30.7187 41.5898 30.7517C41.7294 30.7847 41.857 30.8392 41.9724 30.9154C42.0879 30.9903 42.1806 31.0924 42.2504 31.2219C42.3214 31.3513 42.357 31.5131 42.357 31.7073V33.6642H41.6945V33.2625H41.6717C41.6298 33.3437 41.5708 33.4199 41.4946 33.4909C41.4198 33.5607 41.3252 33.6172 41.211 33.6603C41.0981 33.7022 40.9654 33.7232 40.8132 33.7232ZM40.9921 33.2168C41.1304 33.2168 41.2503 33.1895 41.3519 33.135C41.4534 33.0791 41.5314 33.0055 41.586 32.9141C41.6418 32.8228 41.6698 32.7231 41.6698 32.6153V32.2707C41.6482 32.2885 41.6114 32.305 41.5594 32.3202C41.5086 32.3355 41.4515 32.3488 41.388 32.3602C41.3246 32.3716 41.2618 32.3818 41.1996 32.3907C41.1374 32.3995 41.0835 32.4072 41.0378 32.4135C40.935 32.4275 40.843 32.4503 40.7618 32.482C40.6805 32.5138 40.6165 32.5582 40.5695 32.6153C40.5225 32.6711 40.4991 32.7435 40.4991 32.8323C40.4991 32.9592 40.5454 33.055 40.638 33.1197C40.7307 33.1845 40.8487 33.2168 40.9921 33.2168ZM43.0499 33.6642V30.7402H43.7085V31.2371H43.7428C43.8037 31.0696 43.9046 30.9389 44.0454 30.8449C44.1863 30.7498 44.3545 30.7022 44.5499 30.7022C44.7479 30.7022 44.9147 30.7504 45.0505 30.8469C45.1876 30.942 45.284 31.0721 45.3399 31.2371H45.3703C45.4351 31.0746 45.5442 30.9452 45.6978 30.8488C45.8526 30.751 46.036 30.7022 46.2479 30.7022C46.5169 30.7022 46.7365 30.7872 46.9065 30.9573C47.0766 31.1273 47.1616 31.3754 47.1616 31.7016V33.6642H46.4706V31.8082C46.4706 31.6267 46.4224 31.4941 46.3259 31.4103C46.2295 31.3253 46.1115 31.2828 45.9719 31.2828C45.8056 31.2828 45.6755 31.3348 45.5816 31.4389C45.489 31.5417 45.4427 31.6755 45.4427 31.8405V33.6642H44.7669V31.7796C44.7669 31.6286 44.7212 31.508 44.6298 31.4179C44.5397 31.3278 44.4217 31.2828 44.2758 31.2828C44.1768 31.2828 44.0867 31.3082 44.0055 31.3589C43.9242 31.4084 43.8595 31.4788 43.8113 31.5702C43.7631 31.6603 43.739 31.7656 43.739 31.8862V33.6642H43.0499ZM49.1361 33.7213C48.8506 33.7213 48.6031 33.6584 48.3937 33.5328C48.1843 33.4072 48.0219 33.2314 47.9064 33.0055C47.7922 32.7796 47.7351 32.5157 47.7351 32.2136C47.7351 31.9116 47.7922 31.647 47.9064 31.4198C48.0219 31.1927 48.1843 31.0163 48.3937 30.8906C48.6031 30.765 48.8506 30.7022 49.1361 30.7022C49.4216 30.7022 49.6691 30.765 49.8785 30.8906C50.0879 31.0163 50.2497 31.1927 50.3639 31.4198C50.4794 31.647 50.5371 31.9116 50.5371 32.2136C50.5371 32.5157 50.4794 32.7796 50.3639 33.0055C50.2497 33.2314 50.0879 33.4072 49.8785 33.5328C49.6691 33.6584 49.4216 33.7213 49.1361 33.7213ZM49.1399 33.1692C49.2947 33.1692 49.4242 33.1267 49.5282 33.0417C49.6323 32.9554 49.7097 32.8399 49.7605 32.6952C49.8125 32.5506 49.8385 32.3894 49.8385 32.2117C49.8385 32.0328 49.8125 31.871 49.7605 31.7263C49.7097 31.5804 49.6323 31.4642 49.5282 31.378C49.4242 31.2917 49.2947 31.2485 49.1399 31.2485C48.9813 31.2485 48.8493 31.2917 48.744 31.378C48.6399 31.4642 48.5618 31.5804 48.5098 31.7263C48.4591 31.871 48.4337 32.0328 48.4337 32.2117C48.4337 32.3894 48.4591 32.5506 48.5098 32.6952C48.5618 32.8399 48.6399 32.9554 48.744 33.0417C48.8493 33.1267 48.9813 33.1692 49.1399 33.1692ZM51.8111 31.9509V33.6642H51.122V29.7656H51.7959V31.2371H51.8301C51.8987 31.0721 52.0046 30.942 52.148 30.8469C52.2927 30.7504 52.4767 30.7022 52.7001 30.7022C52.9031 30.7022 53.0802 30.7447 53.2312 30.8297C53.3822 30.9147 53.499 31.0391 53.5814 31.2028C53.6652 31.3665 53.7071 31.5664 53.7071 31.8024V33.6642H53.018V31.909C53.018 31.7123 52.9672 31.5594 52.8657 31.4503C52.7654 31.3399 52.6246 31.2847 52.4431 31.2847C52.3213 31.2847 52.2121 31.3113 52.1157 31.3646C52.0205 31.4167 51.9456 31.4922 51.8911 31.5912C51.8378 31.6901 51.8111 31.8101 51.8111 31.9509ZM55.2509 33.7232C55.0656 33.7232 54.8987 33.6902 54.7502 33.6242C54.603 33.5569 54.4863 33.4579 54.4 33.3272C54.315 33.1965 54.2724 33.0353 54.2724 32.8437C54.2724 32.6787 54.3029 32.5423 54.3638 32.4344C54.4247 32.3266 54.5079 32.2403 54.6132 32.1756C54.7185 32.1108 54.8372 32.062 54.9692 32.029C55.1024 31.9947 55.2401 31.97 55.3822 31.9547C55.5536 31.937 55.6925 31.9211 55.7991 31.9071C55.9057 31.8919 55.9831 31.8691 56.0314 31.8386C56.0808 31.8069 56.1056 31.758 56.1056 31.692V31.6806C56.1056 31.5372 56.0631 31.4262 55.9781 31.3475C55.893 31.2688 55.7706 31.2295 55.6107 31.2295C55.4419 31.2295 55.308 31.2663 55.209 31.3399C55.1113 31.4135 55.0453 31.5004 55.011 31.6007L54.3676 31.5093C54.4184 31.3316 54.5021 31.1832 54.6189 31.0639C54.7356 30.9433 54.8784 30.8532 55.0472 30.7936C55.216 30.7326 55.4025 30.7022 55.6069 30.7022C55.7477 30.7022 55.888 30.7187 56.0275 30.7517C56.1671 30.7847 56.2947 30.8392 56.4102 30.9154C56.5257 30.9903 56.6183 31.0924 56.6881 31.2219C56.7592 31.3513 56.7947 31.5131 56.7947 31.7073V33.6642H56.1322V33.2625H56.1094C56.0675 33.3437 56.0085 33.4199 55.9324 33.4909C55.8575 33.5607 55.7629 33.6172 55.6487 33.6603C55.5358 33.7022 55.4032 33.7232 55.2509 33.7232ZM55.4298 33.2168C55.5681 33.2168 55.6881 33.1895 55.7896 33.135C55.8911 33.0791 55.9692 33.0055 56.0237 32.9141C56.0796 32.8228 56.1075 32.7231 56.1075 32.6153V32.2707C56.0859 32.2885 56.0491 32.305 55.9971 32.3202C55.9463 32.3355 55.8892 32.3488 55.8258 32.3602C55.7623 32.3716 55.6995 32.3818 55.6373 32.3907C55.5751 32.3995 55.5212 32.4072 55.4755 32.4135C55.3727 32.4275 55.2807 32.4503 55.1995 32.482C55.1183 32.5138 55.0542 32.5582 55.0072 32.6153C54.9603 32.6711 54.9368 32.7435 54.9368 32.8323C54.9368 32.9592 54.9831 33.055 55.0758 33.1197C55.1684 33.1845 55.2864 33.2168 55.4298 33.2168ZM57.4876 33.6642V30.7402H58.1462V31.2371H58.1805C58.2414 31.0696 58.3423 30.9389 58.4832 30.8449C58.624 30.7498 58.7922 30.7022 58.9876 30.7022C59.1856 30.7022 59.3525 30.7504 59.4883 30.8469C59.6253 30.942 59.7218 31.0721 59.7776 31.2371H59.8081C59.8728 31.0746 59.9819 30.9452 60.1355 30.8488C60.2903 30.751 60.4737 30.7022 60.6856 30.7022C60.9547 30.7022 61.1742 30.7872 61.3443 30.9573C61.5143 31.1273 61.5993 31.3754 61.5993 31.7016V33.6642H60.9083V31.8082C60.9083 31.6267 60.8601 31.4941 60.7637 31.4103C60.6672 31.3253 60.5492 31.2828 60.4096 31.2828C60.2434 31.2828 60.1133 31.3348 60.0194 31.4389C59.9267 31.5417 59.8804 31.6755 59.8804 31.8405V33.6642H59.2046V31.7796C59.2046 31.6286 59.1589 31.508 59.0676 31.4179C58.9775 31.3278 58.8594 31.2828 58.7135 31.2828C58.6145 31.2828 58.5244 31.3082 58.4432 31.3589C58.362 31.4084 58.2973 31.4788 58.249 31.5702C58.2008 31.6603 58.1767 31.7656 58.1767 31.8862V33.6642H57.4876ZM63.5929 33.7213C63.2997 33.7213 63.0465 33.6603 62.8333 33.5385C62.6214 33.4154 62.4583 33.2416 62.3441 33.0169C62.2299 32.791 62.1728 32.5252 62.1728 32.2193C62.1728 31.9186 62.2299 31.6546 62.3441 31.4274C62.4596 31.199 62.6208 31.0213 62.8276 30.8944C63.0345 30.7663 63.2775 30.7022 63.5567 30.7022C63.7369 30.7022 63.907 30.7314 64.0669 30.7897C64.228 30.8469 64.3702 30.9357 64.4933 31.0562C64.6176 31.1768 64.7153 31.3304 64.7864 31.5169C64.8575 31.7022 64.893 31.923 64.893 32.1794V32.3907H62.4964V31.9262H64.2325C64.2312 31.7942 64.2026 31.6768 64.1468 31.574C64.091 31.47 64.0129 31.3881 63.9127 31.3285C63.8137 31.2688 63.6982 31.239 63.5662 31.239C63.4253 31.239 63.3016 31.2733 63.195 31.3418C63.0884 31.409 63.0053 31.4979 62.9456 31.6083C62.8873 31.7174 62.8574 31.8373 62.8562 31.9681V32.3735C62.8562 32.5436 62.8873 32.6895 62.9495 32.8113C63.0116 32.9319 63.0986 33.0245 63.2102 33.0893C63.3219 33.1527 63.4526 33.1845 63.6024 33.1845C63.7026 33.1845 63.7934 33.1705 63.8746 33.1426C63.9558 33.1134 64.0262 33.0709 64.0859 33.015C64.1455 32.9592 64.1906 32.89 64.221 32.8075L64.8645 32.8799C64.8238 33.0499 64.7464 33.1984 64.6322 33.3253C64.5193 33.451 64.3746 33.5487 64.1982 33.6185C64.0218 33.687 63.82 33.7213 63.5929 33.7213ZM66.561 33.7156C66.3313 33.7156 66.1257 33.6565 65.9443 33.5385C65.7628 33.4205 65.6194 33.2492 65.5141 33.0245C65.4087 32.7999 65.3561 32.5271 65.3561 32.206C65.3561 31.8811 65.4094 31.607 65.516 31.3837C65.6238 31.159 65.7691 30.9896 65.9519 30.8754C66.1346 30.7599 66.3383 30.7022 66.5629 30.7022C66.7343 30.7022 66.8751 30.7314 66.9855 30.7897C67.0959 30.8469 67.1835 30.916 67.2482 30.9972C67.3129 31.0772 67.3631 31.1527 67.3986 31.2238H67.4272V29.7656H68.1182V33.6642H67.4405V33.2035H67.3986C67.3631 33.2746 67.3117 33.3501 67.2444 33.43C67.1772 33.5087 67.0883 33.576 66.9779 33.6318C66.8675 33.6876 66.7285 33.7156 66.561 33.7156ZM66.7533 33.1502C66.8992 33.1502 67.0236 33.1108 67.1264 33.0322C67.2292 32.9522 67.3072 32.8412 67.3605 32.699C67.4138 32.5569 67.4405 32.3913 67.4405 32.2022C67.4405 32.0131 67.4138 31.8488 67.3605 31.7092C67.3085 31.5696 67.2311 31.4611 67.1283 31.3837C67.0268 31.3062 66.9018 31.2675 66.7533 31.2675C66.5997 31.2675 66.4716 31.3075 66.3688 31.3875C66.266 31.4674 66.1886 31.5778 66.1365 31.7187C66.0845 31.8596 66.0585 32.0207 66.0585 32.2022C66.0585 32.3849 66.0845 32.548 66.1365 32.6914C66.1898 32.8336 66.2679 32.9459 66.3707 33.0284C66.4747 33.1096 66.6023 33.1502 66.7533 33.1502Z" fill="black"/>
<path d="M14.7979 38.044H14.3941C14.3702 37.9278 14.3284 37.8258 14.2687 37.7379C14.2101 37.6499 14.1385 37.5761 14.0538 37.5164C13.9702 37.4556 13.8774 37.41 13.7754 37.3796C13.6733 37.3492 13.5669 37.3341 13.4562 37.3341C13.2543 37.3341 13.0714 37.3851 12.9075 37.4871C12.7447 37.5891 12.6149 37.7395 12.5183 37.9381C12.4228 38.1368 12.375 38.3805 12.375 38.6692C12.375 38.958 12.4228 39.2017 12.5183 39.4003C12.6149 39.599 12.7447 39.7493 12.9075 39.8514C13.0714 39.9534 13.2543 40.0044 13.4562 40.0044C13.5669 40.0044 13.6733 39.9892 13.7754 39.9588C13.8774 39.9285 13.9702 39.8834 14.0538 39.8237C14.1385 39.7629 14.2101 39.6886 14.2687 39.6006C14.3284 39.5116 14.3702 39.4096 14.3941 39.2945H14.7979C14.7675 39.4649 14.7122 39.6174 14.6318 39.7521C14.5515 39.8867 14.4516 40.0012 14.3322 40.0956C14.2128 40.189 14.0788 40.2601 13.93 40.3089C13.7824 40.3578 13.6245 40.3822 13.4562 40.3822C13.1718 40.3822 12.9189 40.3127 12.6974 40.1738C12.476 40.0348 12.3018 39.8373 12.1748 39.5811C12.0477 39.3249 11.9842 39.021 11.9842 38.6692C11.9842 38.3175 12.0477 38.0136 12.1748 37.7574C12.3018 37.5012 12.476 37.3037 12.6974 37.1647C12.9189 37.0258 13.1718 36.9563 13.4562 36.9563C13.6245 36.9563 13.7824 36.9807 13.93 37.0296C14.0788 37.0784 14.2128 37.1501 14.3322 37.2445C14.4516 37.3378 14.5515 37.4518 14.6318 37.5864C14.7122 37.72 14.7675 37.8725 14.7979 38.044ZM15.2681 37.3601V37.0019H17.7691V37.3601H16.7205V40.3366H16.3167V37.3601H15.2681ZM21.0672 38.6692C21.0672 39.021 21.0037 39.3249 20.8767 39.5811C20.7497 39.8373 20.5755 40.0348 20.354 40.1738C20.1326 40.3127 19.8797 40.3822 19.5953 40.3822C19.3109 40.3822 19.0579 40.3127 18.8365 40.1738C18.615 40.0348 18.4408 39.8373 18.3138 39.5811C18.1868 39.3249 18.1233 39.021 18.1233 38.6692C18.1233 38.3175 18.1868 38.0136 18.3138 37.7574C18.4408 37.5012 18.615 37.3037 18.8365 37.1647C19.0579 37.0258 19.3109 36.9563 19.5953 36.9563C19.8797 36.9563 20.1326 37.0258 20.354 37.1647C20.5755 37.3037 20.7497 37.5012 20.8767 37.7574C21.0037 38.0136 21.0672 38.3175 21.0672 38.6692ZM20.6764 38.6692C20.6764 38.3805 20.6281 38.1368 20.5315 37.9381C20.436 37.7395 20.3063 37.5891 20.1424 37.4871C19.9795 37.3851 19.7972 37.3341 19.5953 37.3341C19.3934 37.3341 19.2104 37.3851 19.0465 37.4871C18.8837 37.5891 18.754 37.7395 18.6574 37.9381C18.5618 38.1368 18.5141 38.3805 18.5141 38.6692C18.5141 38.958 18.5618 39.2017 18.6574 39.4003C18.754 39.599 18.8837 39.7493 19.0465 39.8514C19.2104 39.9534 19.3934 40.0044 19.5953 40.0044C19.7972 40.0044 19.9795 39.9534 20.1424 39.8514C20.3063 39.7493 20.436 39.599 20.5315 39.4003C20.6281 39.2017 20.6764 38.958 20.6764 38.6692Z" fill="black"/>
<path d="M12.7936 55.773L12.7082 55.934H12.1667L12.2131 55.8876L12.6106 55.4535C12.7326 55.3193 12.8375 55.1486 12.8375 54.9583C12.8375 54.729 12.635 54.5778 12.4179 54.5778C12.2277 54.5778 12.0008 54.7119 12.0008 54.9217C12.0008 54.9632 12.0179 55.0022 12.0667 55.0022C12.1545 55.0022 12.196 54.9095 12.1935 54.8095C12.2472 54.7436 12.3301 54.7144 12.4131 54.7144C12.5521 54.7144 12.6789 54.8168 12.6789 54.9632C12.6789 55.1339 12.5423 55.3242 12.4326 55.4413L11.9691 55.9364V56.0706H12.8058L12.9302 55.8072L12.7936 55.773ZM13.9049 54.5778C13.6512 54.5778 13.4 54.7802 13.4 55.3388C13.4 55.8974 13.6512 56.0999 13.9049 56.0999C14.1586 56.0999 14.4098 55.8974 14.4098 55.3388C14.4098 54.7802 14.1586 54.5778 13.9049 54.5778ZM14.2513 55.3388C14.2513 55.5632 14.2074 55.9633 13.9049 55.9633C13.6025 55.9633 13.5586 55.5632 13.5586 55.3388C13.5586 55.1144 13.6025 54.7144 13.9049 54.7144C14.2074 54.7144 14.2513 55.1144 14.2513 55.3388ZM15.6919 54.5778C15.1577 54.568 14.9041 54.9754 14.9041 55.4705C14.9041 55.9706 15.1968 56.0999 15.3968 56.0999C15.6749 56.0999 15.8676 55.8681 15.8676 55.6023C15.8676 55.3364 15.6797 55.1168 15.4065 55.1168C15.2699 55.1168 15.1797 55.1681 15.0772 55.251H15.0748C15.1529 54.9144 15.3285 54.7119 15.6919 54.7144V54.5778ZM15.0626 55.5827C15.0626 55.3925 15.2187 55.2534 15.4041 55.2534C15.5992 55.2534 15.709 55.4291 15.709 55.6071C15.709 55.7901 15.5822 55.9633 15.3895 55.9633C15.187 55.9633 15.0626 55.7657 15.0626 55.5827ZM16.6594 55.9316C16.6594 56.0267 16.7374 56.0999 16.8301 56.0999C16.9228 56.0999 17.0008 56.0267 17.0008 55.9316C17.0008 55.8389 16.9228 55.7632 16.8301 55.7632C16.7374 55.7632 16.6594 55.8389 16.6594 55.9316ZM17.8195 54.607V54.7436H18.5293L17.9609 56.0999H18.1244L18.7391 54.607H17.8195ZM19.7553 55.3778C19.9163 55.3974 20.0943 55.4779 20.0943 55.6657C20.0943 55.8389 19.9187 55.9633 19.7553 55.9633C19.5918 55.9633 19.4162 55.8389 19.4162 55.6657C19.4162 55.4779 19.5943 55.3974 19.7553 55.3778ZM19.7553 56.0999C20.0089 56.0999 20.2529 55.9267 20.2529 55.6657C20.2529 55.4852 20.1236 55.351 19.9504 55.2949C20.0919 55.2242 20.1992 55.09 20.1992 54.9266C20.1992 54.7827 20.0846 54.5778 19.7553 54.5778C19.426 54.5778 19.3113 54.7827 19.3113 54.9266C19.3113 55.09 19.4187 55.2242 19.5601 55.2949C19.3869 55.351 19.2577 55.4852 19.2577 55.6657C19.2577 55.9267 19.5016 56.0999 19.7553 56.0999ZM19.7553 54.7144C19.8894 54.7144 20.0407 54.7729 20.0407 54.929C20.0407 55.1047 19.9041 55.173 19.7553 55.2388C19.6065 55.173 19.4699 55.1047 19.4699 54.929C19.4699 54.7729 19.6211 54.7144 19.7553 54.7144ZM21.5593 54.607H20.8617L20.8105 55.251C20.9081 55.2217 21.0081 55.2022 21.1105 55.2022C21.3227 55.2022 21.4667 55.3388 21.4667 55.5535C21.4667 55.8145 21.2666 55.9633 21.0203 55.9633C20.9032 55.9633 20.8154 55.9389 20.7105 55.8974L20.6715 56.0291C20.7886 56.073 20.9008 56.0999 21.0276 56.0999C21.352 56.0999 21.6252 55.8876 21.6252 55.5486C21.6252 55.2388 21.4032 55.0656 21.1081 55.0656L20.9691 55.0778L20.9983 54.7436H21.5593V54.607ZM22.5097 55.9316C22.5097 56.0267 22.5877 56.0999 22.6804 56.0999C22.7731 56.0999 22.8512 56.0267 22.8512 55.9316C22.8512 55.8389 22.7731 55.7632 22.6804 55.7632C22.5877 55.7632 22.5097 55.8389 22.5097 55.9316ZM24.4845 54.607H23.7869L23.7357 55.251C23.8332 55.2217 23.9333 55.2022 24.0357 55.2022C24.2479 55.2022 24.3918 55.3388 24.3918 55.5535C24.3918 55.8145 24.1918 55.9633 23.9454 55.9633C23.8284 55.9633 23.7406 55.9389 23.6357 55.8974L23.5966 56.0291C23.7137 56.073 23.8259 56.0999 23.9528 56.0999C24.2772 56.0999 24.5504 55.8876 24.5504 55.5486C24.5504 55.2388 24.3284 55.0656 24.0333 55.0656L23.8942 55.0778L23.9235 54.7436H24.4845V54.607ZM25.9471 54.607H25.2495L25.1983 55.251C25.2958 55.2217 25.3958 55.2022 25.4983 55.2022C25.7105 55.2022 25.8544 55.3388 25.8544 55.5535C25.8544 55.8145 25.6544 55.9633 25.408 55.9633C25.291 55.9633 25.2031 55.9389 25.0983 55.8974L25.0592 56.0291C25.1763 56.073 25.2885 56.0999 25.4154 56.0999C25.7398 56.0999 26.013 55.8876 26.013 55.5486C26.013 55.2388 25.791 55.0656 25.4958 55.0656L25.3568 55.0778L25.3861 54.7436H25.9471V54.607ZM27.2511 55.0437V55.5535H26.6901C26.8877 55.2339 27.078 54.9022 27.1731 54.5363L27.0219 54.4948C26.9267 54.8754 26.7365 55.2242 26.5364 55.5583V55.6901H27.2511V55.934H27.0072V56.0706H27.6121V55.934H27.4024V55.6901H27.6121V55.5535H27.4024V55.0437H27.2511ZM28.5308 55.3778C28.6918 55.3974 28.8698 55.4779 28.8698 55.6657C28.8698 55.8389 28.6942 55.9633 28.5308 55.9633C28.3674 55.9633 28.1917 55.8389 28.1917 55.6657C28.1917 55.4779 28.3698 55.3974 28.5308 55.3778ZM28.5308 56.0999C28.7845 56.0999 29.0284 55.9267 29.0284 55.6657C29.0284 55.4852 28.8991 55.351 28.7259 55.2949C28.8674 55.2242 28.9747 55.09 28.9747 54.9266C28.9747 54.7827 28.8601 54.5778 28.5308 54.5778C28.2015 54.5778 28.0868 54.7827 28.0868 54.9266C28.0868 55.09 28.1942 55.2242 28.3356 55.2949C28.1625 55.351 28.0332 55.4852 28.0332 55.6657C28.0332 55.9267 28.2771 56.0999 28.5308 56.0999ZM28.5308 54.7144C28.6649 54.7144 28.8162 54.7729 28.8162 54.929C28.8162 55.1047 28.6796 55.173 28.5308 55.2388C28.382 55.173 28.2454 55.1047 28.2454 54.929C28.2454 54.7729 28.3966 54.7144 28.5308 54.7144Z" fill="black"/>
<path d="M90.7437 56.0951V53.7885H91.5231C91.704 53.7885 91.8519 53.8211 91.9668 53.8865C92.0824 53.951 92.168 54.0385 92.2236 54.1489C92.2792 54.2593 92.3069 54.3824 92.3069 54.5183C92.3069 54.6542 92.2792 54.7777 92.2236 54.8889C92.1688 55 92.0839 55.0886 91.9691 55.1547C91.8542 55.22 91.707 55.2526 91.5276 55.2526H90.9689V55.0049H91.5186C91.6424 55.0049 91.7419 54.9835 91.817 54.9407C91.8921 54.8979 91.9465 54.84 91.9803 54.7672C92.0149 54.6936 92.0321 54.6107 92.0321 54.5183C92.0321 54.426 92.0149 54.3434 91.9803 54.2705C91.9465 54.1977 91.8917 54.1406 91.8159 54.0993C91.7401 54.0573 91.6394 54.0363 91.514 54.0363H91.023V56.0951H90.7437ZM92.7209 56.0951V54.3651H92.9776V54.6264H92.9957C93.0272 54.5408 93.0843 54.4714 93.1669 54.4181C93.2494 54.3648 93.3426 54.3381 93.4462 54.3381C93.4657 54.3381 93.4901 54.3385 93.5194 54.3392C93.5487 54.34 93.5708 54.3411 93.5858 54.3426V54.6129C93.5768 54.6107 93.5562 54.6073 93.5239 54.6028C93.4924 54.5975 93.4589 54.5949 93.4236 54.5949C93.3396 54.5949 93.2645 54.6125 93.1984 54.6478C93.1331 54.6824 93.0813 54.7304 93.043 54.792C93.0054 54.8528 92.9867 54.9223 92.9867 55.0004V56.0951H92.7209ZM93.9009 56.0951V54.3651H94.1667V56.0951H93.9009ZM94.0361 54.0768C93.9843 54.0768 93.9396 54.0592 93.902 54.0239C93.8652 53.9886 93.8468 53.9462 93.8468 53.8966C93.8468 53.847 93.8652 53.8046 93.902 53.7693C93.9396 53.734 93.9843 53.7164 94.0361 53.7164C94.0879 53.7164 94.1322 53.734 94.169 53.7693C94.2065 53.8046 94.2253 53.847 94.2253 53.8966C94.2253 53.9462 94.2065 53.9886 94.169 54.0239C94.1322 54.0592 94.0879 54.0768 94.0361 54.0768ZM94.9193 55.0544V56.0951H94.6535V54.3651H94.9103V54.6354H94.9329C94.9734 54.5476 95.035 54.477 95.1176 54.4237C95.2002 54.3696 95.3068 54.3426 95.4374 54.3426C95.5546 54.3426 95.6571 54.3666 95.7449 54.4147C95.8328 54.462 95.9011 54.5341 95.9499 54.6309C95.9987 54.727 96.0231 54.8487 96.0231 54.9958V56.0951H95.7573V55.0139C95.7573 54.878 95.722 54.7721 95.6514 54.6963C95.5808 54.6197 95.484 54.5814 95.3608 54.5814C95.276 54.5814 95.2002 54.5998 95.1333 54.6366C95.0673 54.6734 95.0151 54.727 94.9768 54.7976C94.9385 54.8682 94.9193 54.9538 94.9193 55.0544ZM97.2612 54.3651V54.5904H96.3646V54.3651H97.2612ZM96.6259 53.9507H96.8917V55.5995C96.8917 55.6746 96.9026 55.7309 96.9244 55.7685C96.9469 55.8053 96.9755 55.83 97.01 55.8428C97.0453 55.8548 97.0825 55.8608 97.1215 55.8608C97.1508 55.8608 97.1748 55.8593 97.1936 55.8563C97.2123 55.8526 97.2274 55.8496 97.2386 55.8473L97.2927 56.0861C97.2747 56.0928 97.2495 56.0996 97.2172 56.1064C97.1849 56.1139 97.144 56.1176 97.0945 56.1176C97.0194 56.1176 96.9458 56.1015 96.8737 56.0692C96.8024 56.0369 96.7431 55.9877 96.6958 55.9216C96.6492 55.8556 96.6259 55.7722 96.6259 55.6716V53.9507ZM97.8547 56.1131C97.7991 56.1131 97.7515 56.0932 97.7117 56.0534C97.6719 56.0136 97.652 55.9659 97.652 55.9104C97.652 55.8548 97.6719 55.8071 97.7117 55.7673C97.7515 55.7276 97.7991 55.7077 97.8547 55.7077C97.9103 55.7077 97.9579 55.7276 97.9977 55.7673C98.0375 55.8071 98.0574 55.8548 98.0574 55.9104C98.0574 55.9472 98.048 55.981 98.0293 56.0117C98.0113 56.0425 97.9869 56.0673 97.9561 56.0861C97.926 56.1041 97.8922 56.1131 97.8547 56.1131ZM99.7598 54.7526L99.521 54.8201C99.506 54.7804 99.4839 54.7417 99.4546 54.7041C99.426 54.6658 99.387 54.6343 99.3374 54.6095C99.2879 54.5848 99.2244 54.5724 99.1471 54.5724C99.0412 54.5724 98.953 54.5968 98.8824 54.6456C98.8126 54.6936 98.7777 54.7548 98.7777 54.8292C98.7777 54.8952 98.8017 54.9474 98.8498 54.9857C98.8978 55.024 98.9729 55.0559 99.075 55.0814L99.3318 55.1445C99.4865 55.1821 99.6017 55.2395 99.6776 55.3168C99.7534 55.3934 99.7913 55.4922 99.7913 55.613C99.7913 55.7122 99.7628 55.8008 99.7057 55.8788C99.6494 55.9569 99.5706 56.0185 99.4692 56.0636C99.3679 56.1086 99.25 56.1311 99.1156 56.1311C98.9391 56.1311 98.7931 56.0928 98.6774 56.0163C98.5618 55.9397 98.4886 55.8278 98.4578 55.6806L98.7101 55.6176C98.7341 55.7107 98.7796 55.7805 98.8464 55.827C98.914 55.8736 99.0022 55.8969 99.1111 55.8969C99.235 55.8969 99.3333 55.8706 99.4061 55.818C99.4797 55.7647 99.5165 55.7009 99.5165 55.6266C99.5165 55.5665 99.4955 55.5162 99.4534 55.4756C99.4114 55.4343 99.3468 55.4036 99.2597 55.3833L98.9714 55.3157C98.813 55.2782 98.6966 55.22 98.6223 55.1411C98.5487 55.0615 98.5119 54.9621 98.5119 54.8427C98.5119 54.7451 98.5393 54.6587 98.5941 54.5836C98.6497 54.5085 98.7251 54.4496 98.8205 54.4068C98.9166 54.364 99.0255 54.3426 99.1471 54.3426C99.3183 54.3426 99.4527 54.3801 99.5503 54.4552C99.6487 54.5303 99.7185 54.6294 99.7598 54.7526ZM100.701 56.1356C100.591 56.1356 100.491 56.115 100.402 56.0737C100.313 56.0316 100.242 55.9712 100.189 55.8924C100.137 55.8128 100.11 55.7167 100.11 55.604C100.11 55.5049 100.13 55.4246 100.169 55.363C100.208 55.3007 100.26 55.2519 100.325 55.2166C100.391 55.1813 100.463 55.155 100.542 55.1378C100.621 55.1197 100.701 55.1055 100.782 55.095C100.887 55.0814 100.972 55.0713 101.037 55.0645C101.103 55.057 101.151 55.0447 101.181 55.0274C101.212 55.0101 101.228 54.9801 101.228 54.9373V54.9283C101.228 54.8171 101.197 54.7308 101.136 54.6692C101.076 54.6077 100.985 54.5769 100.863 54.5769C100.736 54.5769 100.636 54.6047 100.564 54.6602C100.492 54.7158 100.441 54.7751 100.412 54.8382L100.16 54.7481C100.205 54.6429 100.265 54.5611 100.34 54.5025C100.416 54.4432 100.499 54.4019 100.588 54.3786C100.678 54.3546 100.767 54.3426 100.854 54.3426C100.909 54.3426 100.973 54.3494 101.045 54.3629C101.118 54.3756 101.188 54.4023 101.256 54.4428C101.324 54.4834 101.381 54.5446 101.426 54.6264C101.471 54.7083 101.493 54.8179 101.493 54.9553V56.0951H101.228V55.8608H101.214C101.196 55.8984 101.166 55.9385 101.124 55.9813C101.082 56.0241 101.026 56.0606 100.956 56.0906C100.886 56.1206 100.801 56.1356 100.701 56.1356ZM100.741 55.8969C100.846 55.8969 100.935 55.8762 101.007 55.8349C101.08 55.7936 101.135 55.7403 101.171 55.675C101.209 55.6097 101.228 55.541 101.228 55.4689V55.2256C101.216 55.2391 101.192 55.2515 101.153 55.2628C101.116 55.2733 101.072 55.2827 101.023 55.2909C100.974 55.2984 100.926 55.3052 100.88 55.3112C100.834 55.3165 100.797 55.321 100.768 55.3247C100.699 55.3337 100.634 55.3484 100.574 55.3686C100.515 55.3882 100.467 55.4178 100.43 55.4576C100.394 55.4967 100.376 55.55 100.376 55.6176C100.376 55.7099 100.41 55.7797 100.479 55.827C100.548 55.8736 100.635 55.8969 100.741 55.8969Z" fill="black"/>
</g>
<defs>
<filter id="filter0_d_38_706" x="0.48094" y="0.0870428" width="131.038" height="86.7802" filterUnits="userSpaceOnUse" color-interpolation-filters="sRGB">
<feFlood flood-opacity="0" result="BackgroundImageFix"/>
<feColorMatrix in="SourceAlpha" type="matrix" values="0 0 0 0 0 0 0 0 0 0 0 0 0 0 0 0 0 0 127 0" result="hardAlpha"/>
<feOffset dy="1.7356"/>
<feGaussianBlur stdDeviation="1.7356"/>
<feComposite in2="hardAlpha" operator="out"/>
<feColorMatrix type="matrix" values="0 0 0 0 0 0 0 0 0 0 0 0 0 0 0 0 0 0 0.25 0"/>
<feBlend mode="normal" in2="BackgroundImageFix" result="effect1_dropShadow_38_706"/>
<feBlend mode="normal" in="SourceGraphic" in2="effect1_dropShadow_38_706" result="shape"/>
</filter>
</defs>
</svg>
