<svg width="88" height="89" viewBox="0 0 88 89" fill="none" xmlns="http://www.w3.org/2000/svg">
<g filter="url(#filter0_d_38_727)">
<g clip-path="url(#clip0_38_727)">
<rect x="4.07996" y="2.82155" width="79.84" height="79.84" rx="8.49448" fill="#F7F7F7"/>
<path d="M25.4134 18.6685C25.4678 18.6449 25.5017 18.607 25.5215 18.5554C25.5412 18.4985 25.5459 18.428 25.5459 18.3377V17.5633C25.5459 17.379 25.512 17.209 25.4481 17.0581C25.3842 16.9018 25.3005 16.7653 25.1877 16.647C25.0749 16.5241 24.9471 16.4202 24.7995 16.3398C24.652 16.2548 24.495 16.1888 24.3277 16.1464C24.1557 16.1039 23.979 16.0804 23.807 16.0804C23.635 16.0804 23.4535 16.0993 23.2815 16.1372C23.1095 16.1752 22.947 16.2268 22.8003 16.3072L22.7663 16.3261V15.1876C22.7663 14.9562 22.6433 14.8379 22.4026 14.8379C22.162 14.8379 22.0342 14.9562 22.0342 15.1876L22.0389 18.0123H21.3998V16.3496C21.3998 16.2313 21.3754 16.1464 21.3115 16.0849C21.2475 16.0235 21.1592 16 21.0408 16C20.7947 16 20.6724 16.1183 20.6724 16.3496V18.0123H16.8829C16.7062 18.0123 16.5681 17.9888 16.4655 17.9418C16.3669 17.8948 16.303 17.8288 16.2588 17.7431C16.2194 17.6626 16.1997 17.5686 16.1997 17.4594C16.1997 17.3501 16.2146 17.247 16.2588 17.1567C16.2983 17.0672 16.3669 16.9914 16.4703 16.9345C16.5736 16.8776 16.7109 16.8495 16.8829 16.8495H17.2758C17.4036 16.8495 17.4967 16.8161 17.5559 16.7646C17.6198 16.7077 17.649 16.6273 17.649 16.5097C17.649 16.3921 17.6198 16.311 17.5559 16.2495C17.492 16.1881 17.4036 16.16 17.2758 16.16H16.8584C16.6076 16.16 16.3914 16.1934 16.2099 16.2594C16.0332 16.3208 15.8904 16.4103 15.7823 16.5286C15.6742 16.6417 15.5953 16.7744 15.5464 16.9299C15.4975 17.0809 15.4777 17.2417 15.4777 17.4169C15.4777 17.5921 15.4975 17.7567 15.5464 17.913C15.5614 17.9645 15.5858 18.0169 15.6103 18.0692C15.3594 18.1261 15.1629 18.23 15.0209 18.3855C14.6966 18.7299 14.6177 19.1782 14.7803 19.7357H15.6111C15.5132 19.6599 15.4541 19.5468 15.4391 19.3959C15.4241 19.2586 15.4438 19.1312 15.4982 19.0128C15.5866 18.8095 15.7981 18.7056 16.1271 18.7056H20.9769C21.1197 18.7056 21.2223 18.6677 21.2917 18.5918C21.3115 18.5774 21.3264 18.5539 21.3406 18.5304C21.3935 18.6465 21.4992 18.7026 21.6602 18.7049H21.6697H25.1688C25.2769 18.7049 25.3605 18.6905 25.4142 18.6669M24.8193 18.0101H22.7655V17.429C22.7758 17.3486 22.7995 17.2728 22.8444 17.2068C22.9036 17.1173 22.9817 17.0414 23.0803 16.98C23.1782 16.9185 23.2918 16.8761 23.4141 16.8427C23.5372 16.8093 23.6697 16.7957 23.807 16.7957C23.9348 16.7957 24.0579 16.8146 24.1802 16.8472C24.2985 16.8806 24.4058 16.9276 24.5045 16.9982C24.6031 17.0642 24.6812 17.1446 24.7356 17.2439C24.7901 17.3388 24.8193 17.4518 24.8193 17.5792V18.0093V18.0101ZM26.667 15.2467V18.3552C26.667 18.4735 26.6379 18.5585 26.5739 18.6199C26.5148 18.6768 26.4264 18.7049 26.3033 18.7049C26.1802 18.7049 26.0919 18.6768 26.0327 18.6199C25.9688 18.5585 25.9396 18.4735 25.9396 18.3552V15.2483C25.9396 15.0169 26.0627 14.8986 26.3033 14.8986C26.544 14.8986 26.667 15.0169 26.667 15.2483M16.1949 20.225H15.1282C14.8481 20.225 14.7006 20.3478 14.7006 20.6315V23.6315C14.7006 23.8962 14.8379 24.0282 15.1085 24.0282C15.3791 24.0282 15.5164 23.8962 15.5164 23.6315V22.7107H16.2194C16.9665 22.7107 17.5314 22.1812 17.5314 21.4773C17.5314 20.7354 16.9713 20.2257 16.1949 20.2257M16.2044 21.9309H15.5164V21.0047H16.1255C16.5034 21.0047 16.7007 21.1792 16.7007 21.472C16.7007 21.7648 16.5042 21.9301 16.2044 21.9301M19.9954 21.5713C19.9954 21.7701 19.8234 21.9491 19.5923 21.9491C19.5236 21.9491 19.455 21.9491 19.4053 21.9347C19.3658 21.9301 19.3366 21.9203 19.2877 21.9203C19.0913 21.9203 18.8703 22.0765 18.8703 22.2889V23.6497C18.8703 23.9 18.7425 24.0275 18.4822 24.0275C18.2218 24.0275 18.0893 23.9 18.0893 23.6497V21.585C18.0893 21.3203 18.2218 21.1928 18.4822 21.1928C18.6344 21.1928 18.7922 21.2877 18.8064 21.5145C18.8901 21.3536 19.2238 21.1557 19.4353 21.1557C19.8432 21.1557 19.9954 21.3681 19.9954 21.5713ZM21.4424 20.0725C21.4424 20.3274 21.2507 20.5117 20.9856 20.5117C20.7347 20.5117 20.5288 20.3183 20.5288 20.0725C20.5288 19.8267 20.7355 19.6424 20.9856 19.6424C21.2357 19.6424 21.4424 19.8313 21.4424 20.0725ZM21.3935 21.6002V23.6459C21.3935 23.9008 21.261 24.0282 21.0006 24.0282C20.7402 24.0282 20.6077 23.9008 20.6077 23.6459V21.6002C20.6077 21.3453 20.7355 21.2224 20.9959 21.2224C21.2562 21.2224 21.3935 21.3453 21.3935 21.6002ZM24.3979 22.1531V23.6505C24.3979 23.9008 24.2654 24.0282 24.0003 24.0282C23.7352 24.0282 23.6074 23.9008 23.6074 23.6505V22.2897C23.6074 21.9969 23.4157 21.8505 23.2287 21.8505C23.0322 21.8505 22.831 22.0014 22.831 22.2897V23.6505C22.831 23.9008 22.6985 24.0282 22.4334 24.0282C22.1825 24.0282 22.0547 23.9008 22.0547 23.6505V21.5911C22.0547 21.3832 22.1825 21.1944 22.4334 21.1944C22.6985 21.1944 22.831 21.3832 22.831 21.5395C23.0078 21.3362 23.2287 21.1853 23.5387 21.1853C23.9364 21.1853 24.3987 21.4356 24.3987 22.1539M26.028 21.8702V23.0323C26.028 23.2356 26.0374 23.3349 26.1361 23.3349C26.4114 23.3349 26.559 23.4532 26.559 23.7036C26.559 23.9395 26.4114 24.0677 26.1361 24.0677C25.4086 24.0677 25.2414 23.68 25.2414 23.033V21.8611C25.0299 21.8421 24.8871 21.7716 24.8871 21.5493C24.8871 21.3271 25.0299 21.271 25.2414 21.2421V21.0487C25.2414 20.7984 25.3692 20.6755 25.6295 20.6755C25.8899 20.6755 26.0272 20.7984 26.0272 21.0487V21.2421H26.2481C26.5187 21.2421 26.6513 21.299 26.6513 21.5539C26.6513 21.8088 26.5235 21.8702 26.2536 21.8702H26.0272H26.028Z" fill="#390089"/>
<path d="M32.825 14.1362L35.4191 16.6302V21.6441C35.4191 22.0097 35.1099 22.3071 34.7296 22.3071H32.7121C31.5326 22.3071 30.5732 23.2294 30.5732 24.3634V24.8398C30.5732 25.2054 30.2639 25.5028 29.8837 25.5028H29.7795C29.3992 25.5028 29.0899 25.2054 29.0899 24.8398V14.7999C29.0899 14.4343 29.3992 14.137 29.7795 14.137H32.825M33.1248 13.4406H29.7795C28.9984 13.4406 28.3649 14.0497 28.3649 14.8007V24.8421C28.3649 25.593 28.9984 26.2014 29.7795 26.2014H29.8837C30.6647 26.2014 31.2983 25.5923 31.2983 24.8421V24.3657C31.2983 23.6148 31.9318 23.0057 32.7129 23.0057H34.7304C35.5115 23.0057 36.145 22.3966 36.145 21.6456V16.342L33.1248 13.4399V13.4406Z" fill="#390089"/>
<path d="M33.1245 13.44L36.1431 16.3421H33.8314C33.4409 16.3421 33.1245 16.0379 33.1245 15.6625V13.44Z" fill="#D1D3D4"/>
<path d="M32.4174 15.888H29.85C29.6544 15.888 29.4966 15.7355 29.4966 15.5482C29.4966 15.3608 29.6552 15.2083 29.85 15.2083H32.4174C32.6123 15.2083 32.7708 15.3608 32.7708 15.5482C32.7708 15.7355 32.6123 15.888 32.4174 15.888Z" fill="#EEDC11"/>
<path d="M34.6573 17.6702H29.85C29.6552 17.6702 29.4966 17.5177 29.4966 17.3304C29.4966 17.143 29.6552 16.9906 29.85 16.9906H34.6573C34.8522 16.9906 35.0108 17.143 35.0108 17.3304C35.0108 17.5177 34.8522 17.6702 34.6573 17.6702Z" fill="#D9488F"/>
<path d="M34.6573 19.4527H29.85C29.6552 19.4527 29.4966 19.3003 29.4966 19.1129C29.4966 18.9256 29.6552 18.7731 29.85 18.7731H34.6573C34.8522 18.7731 35.0108 18.9256 35.0108 19.1129C35.0108 19.3003 34.8522 19.4527 34.6573 19.4527Z" fill="#8259A5"/>
<path d="M34.6573 21.2356H29.85C29.6552 21.2356 29.4966 21.0831 29.4966 20.8958C29.4966 20.7084 29.6552 20.556 29.85 20.556H34.6573C34.8522 20.556 35.0108 20.7084 35.0108 20.8958C35.0108 21.0831 34.8522 21.2356 34.6573 21.2356Z" fill="#6ACBE1"/>
<path d="M15.9094 43.8192H14.8778L16.7561 38.4837H17.9493L19.8303 43.8192H18.7986L17.3736 39.5779H17.3319L15.9094 43.8192ZM15.9433 41.7272H18.7569V42.5036H15.9433V41.7272ZM20.533 43.8192V38.4837H21.4761V40.4793H21.5152C21.5638 40.3821 21.6324 40.2787 21.721 40.1693C21.8096 40.0582 21.9294 39.9635 22.0805 39.8853C22.2316 39.8054 22.4244 39.7655 22.6589 39.7655C22.968 39.7655 23.2468 39.8445 23.4951 40.0026C23.7452 40.1589 23.9432 40.3908 24.0891 40.6982C24.2368 41.0038 24.3106 41.379 24.3106 41.8236C24.3106 42.263 24.2385 42.6364 24.0943 42.9439C23.9502 43.2513 23.7539 43.4857 23.5056 43.6473C23.2572 43.8088 22.9758 43.8896 22.6615 43.8896C22.4322 43.8896 22.242 43.8513 22.0909 43.7749C21.9398 43.6985 21.8183 43.6065 21.7262 43.4988C21.6359 43.3894 21.5656 43.286 21.5152 43.1888H21.4605V43.8192H20.533ZM21.4579 41.8184C21.4579 42.0772 21.4943 42.3038 21.5673 42.4984C21.642 42.6929 21.7488 42.8449 21.8877 42.9543C22.0284 43.062 22.1986 43.1158 22.3984 43.1158C22.6068 43.1158 22.7813 43.0602 22.922 42.9491C23.0627 42.8362 23.1686 42.6825 23.2398 42.488C23.3128 42.2917 23.3493 42.0685 23.3493 41.8184C23.3493 41.57 23.3137 41.3495 23.2424 41.1567C23.1712 40.9639 23.0653 40.8128 22.9246 40.7034C22.7839 40.594 22.6085 40.5393 22.3984 40.5393C22.1969 40.5393 22.0258 40.5922 21.8851 40.6982C21.7444 40.8041 21.6376 40.9526 21.5647 41.1437C21.4935 41.3347 21.4579 41.5596 21.4579 41.8184ZM26.5973 43.8896C26.2829 43.8896 26.0016 43.8088 25.7532 43.6473C25.5049 43.4857 25.3086 43.2513 25.1644 42.9439C25.0203 42.6364 24.9482 42.263 24.9482 41.8236C24.9482 41.379 25.0212 41.0038 25.167 40.6982C25.3147 40.3908 25.5135 40.1589 25.7636 40.0026C26.0137 39.8445 26.2925 39.7655 26.5999 39.7655C26.8344 39.7655 27.0272 39.8054 27.1783 39.8853C27.3294 39.9635 27.4492 40.0582 27.5378 40.1693C27.6264 40.2787 27.695 40.3821 27.7436 40.4793H27.7827V38.4837H28.7284V43.8192H27.8009V43.1888H27.7436C27.695 43.286 27.6246 43.3894 27.5326 43.4988C27.4405 43.6065 27.319 43.6985 27.1678 43.7749C27.0167 43.8513 26.8266 43.8896 26.5973 43.8896ZM26.8604 43.1158C27.0602 43.1158 27.2304 43.062 27.3711 42.9543C27.5117 42.8449 27.6185 42.6929 27.6915 42.4984C27.7644 42.3038 27.8009 42.0772 27.8009 41.8184C27.8009 41.5596 27.7644 41.3347 27.6915 41.1437C27.6203 40.9526 27.5143 40.8041 27.3737 40.6982C27.2347 40.5922 27.0636 40.5393 26.8604 40.5393C26.6503 40.5393 26.4749 40.594 26.3342 40.7034C26.1935 40.8128 26.0876 40.9639 26.0163 41.1567C25.9451 41.3495 25.9095 41.57 25.9095 41.8184C25.9095 42.0685 25.9451 42.2917 26.0163 42.488C26.0893 42.6825 26.1961 42.8362 26.3368 42.9491C26.4792 43.0602 26.6538 43.1158 26.8604 43.1158ZM32.2838 42.1362V39.8176H33.2269V43.8192H32.3125V43.108H32.2708C32.1805 43.332 32.032 43.5153 31.8253 43.6577C31.6204 43.8001 31.3677 43.8713 31.0672 43.8713C30.8049 43.8713 30.5731 43.8131 30.3716 43.6968C30.1719 43.5787 30.0156 43.4076 29.9027 43.1835C29.7898 42.9578 29.7333 42.6851 29.7333 42.3655V39.8176H30.6764V42.2196C30.6764 42.4732 30.7459 42.6747 30.8848 42.824C31.0238 42.9734 31.2061 43.0481 31.4319 43.0481C31.5709 43.0481 31.7055 43.0142 31.8357 42.9465C31.966 42.8787 32.0728 42.778 32.1562 42.6443C32.2413 42.5088 32.2838 42.3395 32.2838 42.1362ZM35.1398 38.4837V43.8192H34.1967V38.4837H35.1398ZM37.0527 38.4837V43.8192H36.1096V38.4837H37.0527ZM39.174 43.9C38.9204 43.9 38.692 43.8548 38.4888 43.7645C38.2873 43.6725 38.1275 43.537 38.0094 43.3581C37.8931 43.1792 37.8349 42.9586 37.8349 42.6964C37.8349 42.4706 37.8766 42.2839 37.9599 42.1362C38.0433 41.9886 38.1571 41.8705 38.3012 41.7819C38.4454 41.6934 38.6078 41.6265 38.7884 41.5813C38.9708 41.5344 39.1592 41.5006 39.3537 41.4797C39.5882 41.4554 39.7784 41.4337 39.9243 41.4146C40.0702 41.3938 40.1761 41.3625 40.2421 41.3208C40.3098 41.2774 40.3437 41.2105 40.3437 41.1202V41.1046C40.3437 40.9083 40.2855 40.7564 40.1692 40.6487C40.0528 40.541 39.8852 40.4871 39.6664 40.4871C39.4354 40.4871 39.2521 40.5375 39.1167 40.6382C38.9829 40.739 38.8926 40.858 38.8457 40.9952L37.9652 40.8701C38.0346 40.627 38.1493 40.4238 38.309 40.2605C38.4688 40.0955 38.6642 39.9722 38.8952 39.8906C39.1262 39.8072 39.3815 39.7655 39.6611 39.7655C39.8539 39.7655 40.0458 39.7881 40.2369 39.8332C40.4279 39.8784 40.6025 39.9531 40.7605 40.0573C40.9186 40.1598 41.0454 40.2996 41.1409 40.4767C41.2382 40.6539 41.2868 40.8753 41.2868 41.1411V43.8192H40.3802V43.2695H40.3489C40.2916 43.3807 40.2108 43.4849 40.1066 43.5821C40.0042 43.6777 39.8748 43.755 39.7185 43.814C39.5639 43.8713 39.3824 43.9 39.174 43.9ZM39.4189 43.207C39.6082 43.207 39.7723 43.1696 39.9112 43.095C40.0502 43.0185 40.157 42.9178 40.2317 42.7928C40.3081 42.6677 40.3463 42.5314 40.3463 42.3837V41.9122C40.3168 41.9365 40.2664 41.9591 40.1952 41.9799C40.1257 42.0008 40.0476 42.019 39.9607 42.0346C39.8739 42.0503 39.7879 42.0642 39.7028 42.0763C39.6177 42.0885 39.5439 42.0989 39.4814 42.1076C39.3407 42.1267 39.2148 42.158 39.1036 42.2014C38.9925 42.2448 38.9048 42.3056 38.8405 42.3837C38.7762 42.4602 38.7441 42.5592 38.7441 42.6807C38.7441 42.8544 38.8075 42.9855 38.9343 43.0741C39.0611 43.1627 39.2226 43.207 39.4189 43.207ZM43.1782 41.4745V43.8192H42.2351V38.4837H43.1573V40.4976H43.2042C43.298 40.2718 43.443 40.0938 43.6393 39.9635C43.8373 39.8315 44.0891 39.7655 44.3948 39.7655C44.6727 39.7655 44.915 39.8237 45.1217 39.9401C45.3283 40.0564 45.4881 40.2266 45.601 40.4507C45.7157 40.6747 45.773 40.9483 45.773 41.2713V43.8192H44.8299V41.4172C44.8299 41.148 44.7604 40.9387 44.6215 40.7894C44.4843 40.6382 44.2915 40.5627 44.0431 40.5627C43.8764 40.5627 43.727 40.5992 43.595 40.6721C43.4648 40.7433 43.3623 40.8467 43.2876 40.9821C43.2147 41.1176 43.1782 41.2817 43.1782 41.4745ZM15.2243 53.8192V48.4837H17.2667C17.6523 48.4837 17.9728 48.5445 18.2281 48.6661C18.4851 48.7859 18.677 48.9501 18.8038 49.1585C18.9323 49.3669 18.9966 49.6031 18.9966 49.8671C18.9966 50.0842 18.9549 50.27 18.8715 50.4246C18.7882 50.5775 18.6762 50.7016 18.5355 50.7972C18.3948 50.8927 18.2376 50.9613 18.0639 51.003V51.0551C18.2532 51.0655 18.4347 51.1237 18.6084 51.2296C18.7838 51.3338 18.9271 51.4815 19.0383 51.6725C19.1494 51.8636 19.205 52.0946 19.205 52.3655C19.205 52.6417 19.1381 52.89 19.0044 53.1106C18.8707 53.3294 18.6692 53.5022 18.4 53.629C18.1308 53.7558 17.7921 53.8192 17.384 53.8192H15.2243ZM16.1908 53.0116H17.2303C17.5811 53.0116 17.8338 52.9447 17.9884 52.811C18.1447 52.6755 18.2229 52.5018 18.2229 52.29C18.2229 52.1319 18.1838 51.9895 18.1056 51.8627C18.0275 51.7342 17.9163 51.6334 17.7721 51.5605C17.628 51.4858 17.456 51.4485 17.2563 51.4485H16.1908V53.0116ZM16.1908 50.7529H17.1469C17.3136 50.7529 17.4639 50.7225 17.5976 50.6617C17.7313 50.5992 17.8364 50.5115 17.9128 50.3986C17.991 50.2839 18.0301 50.1485 18.0301 49.9922C18.0301 49.7855 17.9571 49.6153 17.8112 49.4815C17.6671 49.3478 17.4526 49.2809 17.1677 49.2809H16.1908V50.7529ZM21.1557 53.9C20.9021 53.9 20.6737 53.8548 20.4705 53.7645C20.269 53.6725 20.1092 53.537 19.9911 53.3581C19.8748 53.1792 19.8166 52.9586 19.8166 52.6964C19.8166 52.4706 19.8583 52.2839 19.9416 52.1362C20.025 51.9886 20.1388 51.8705 20.2829 51.7819C20.4271 51.6934 20.5895 51.6265 20.7701 51.5813C20.9525 51.5344 21.1409 51.5006 21.3354 51.4797C21.5699 51.4554 21.7601 51.4337 21.906 51.4146C22.0519 51.3938 22.1578 51.3625 22.2238 51.3208C22.2915 51.2774 22.3254 51.2105 22.3254 51.1202V51.1046C22.3254 50.9083 22.2672 50.7564 22.1509 50.6487C22.0345 50.541 21.8669 50.4871 21.6481 50.4871C21.4171 50.4871 21.2338 50.5375 21.0984 50.6382C20.9646 50.739 20.8743 50.858 20.8274 50.9952L19.9468 50.8701C20.0163 50.627 20.131 50.4238 20.2907 50.2605C20.4505 50.0955 20.6459 49.9722 20.8769 49.8906C21.1079 49.8072 21.3632 49.7655 21.6428 49.7655C21.8356 49.7655 22.0275 49.7881 22.2186 49.8332C22.4096 49.8784 22.5842 49.9531 22.7422 50.0573C22.9003 50.1598 23.0271 50.2996 23.1226 50.4767C23.2199 50.6539 23.2685 50.8753 23.2685 51.1411V53.8192H22.3619V53.2695H22.3306C22.2733 53.3807 22.1925 53.4849 22.0883 53.5821C21.9859 53.6777 21.8565 53.755 21.7002 53.814C21.5456 53.8713 21.3641 53.9 21.1557 53.9ZM21.4006 53.207C21.5899 53.207 21.754 53.1696 21.8929 53.095C22.0319 53.0185 22.1387 52.9178 22.2134 52.7928C22.2898 52.6677 22.328 52.5314 22.328 52.3837V51.9122C22.2985 51.9365 22.2481 51.9591 22.1769 51.9799C22.1074 52.0008 22.0293 52.019 21.9424 52.0346C21.8556 52.0503 21.7696 52.0642 21.6845 52.0763C21.5994 52.0885 21.5256 52.0989 21.4631 52.1076C21.3224 52.1267 21.1965 52.158 21.0853 52.2014C20.9742 52.2448 20.8865 52.3056 20.8222 52.3837C20.7579 52.4602 20.7258 52.5592 20.7258 52.6807C20.7258 52.8544 20.7892 52.9855 20.916 53.0741C21.0428 53.1627 21.2043 53.207 21.4006 53.207ZM24.2168 53.8192V49.8176H25.1182V50.4976H25.1651C25.2485 50.2683 25.3865 50.0894 25.5793 49.9609C25.7721 49.8306 26.0022 49.7655 26.2697 49.7655C26.5406 49.7655 26.769 49.8315 26.9549 49.9635C27.1424 50.0938 27.2744 50.2718 27.3509 50.4976H27.3925C27.4811 50.2753 27.6305 50.0981 27.8406 49.9661C28.0525 49.8324 28.3035 49.7655 28.5935 49.7655C28.9618 49.7655 29.2622 49.8819 29.495 50.1146C29.7277 50.3473 29.8441 50.6869 29.8441 51.1332V53.8192H28.8984V51.2791C28.8984 51.0308 28.8324 50.8493 28.7004 50.7346C28.5684 50.6183 28.4068 50.5601 28.2158 50.5601C27.9883 50.5601 27.8102 50.6313 27.6817 50.7737C27.5549 50.9144 27.4915 51.0976 27.4915 51.3234V53.8192H26.5667V51.2401C26.5667 51.0334 26.5042 50.8684 26.3791 50.7451C26.2558 50.6217 26.0943 50.5601 25.8945 50.5601C25.7591 50.5601 25.6358 50.5948 25.5246 50.6643C25.4135 50.732 25.3249 50.8284 25.2589 50.9535C25.1929 51.0768 25.1599 51.2209 25.1599 51.3859V53.8192H24.2168ZM32.5463 53.8974C32.1555 53.8974 31.8168 53.8114 31.5303 53.6395C31.2437 53.4675 31.0214 53.227 30.8633 52.9178C30.707 52.6087 30.6289 52.2474 30.6289 51.834C30.6289 51.4207 30.707 51.0586 30.8633 50.7477C31.0214 50.4368 31.2437 50.1954 31.5303 50.0234C31.8168 49.8515 32.1555 49.7655 32.5463 49.7655C32.9371 49.7655 33.2758 49.8515 33.5623 50.0234C33.8489 50.1954 34.0704 50.4368 34.2267 50.7477C34.3847 51.0586 34.4637 51.4207 34.4637 51.834C34.4637 52.2474 34.3847 52.6087 34.2267 52.9178C34.0704 53.227 33.8489 53.4675 33.5623 53.6395C33.2758 53.8114 32.9371 53.8974 32.5463 53.8974ZM32.5515 53.1419C32.7634 53.1419 32.9406 53.0837 33.083 52.9673C33.2254 52.8492 33.3313 52.6912 33.4008 52.4932C33.472 52.2952 33.5076 52.0746 33.5076 51.8314C33.5076 51.5865 33.472 51.3651 33.4008 51.1671C33.3313 50.9674 33.2254 50.8085 33.083 50.6904C32.9406 50.5723 32.7634 50.5132 32.5515 50.5132C32.3344 50.5132 32.1538 50.5723 32.0096 50.6904C31.8672 50.8085 31.7604 50.9674 31.6892 51.1671C31.6197 51.3651 31.585 51.5865 31.585 51.8314C31.585 52.0746 31.6197 52.2952 31.6892 52.4932C31.7604 52.6912 31.8672 52.8492 32.0096 52.9673C32.1538 53.0837 32.3344 53.1419 32.5515 53.1419ZM36.2073 51.4745V53.8192H35.2642V48.4837H36.1864V50.4976H36.2333C36.3271 50.2718 36.4721 50.0938 36.6684 49.9635C36.8664 49.8315 37.1182 49.7655 37.4239 49.7655C37.7018 49.7655 37.9441 49.8237 38.1508 49.9401C38.3574 50.0564 38.5172 50.2266 38.6301 50.4507C38.7448 50.6747 38.8021 50.9483 38.8021 51.2713V53.8192H37.859V51.4172C37.859 51.148 37.7895 50.9387 37.6506 50.7894C37.5134 50.6382 37.3206 50.5627 37.0722 50.5627C36.9055 50.5627 36.7561 50.5992 36.6241 50.6721C36.4939 50.7433 36.3914 50.8467 36.3167 50.9821C36.2438 51.1176 36.2073 51.2817 36.2073 51.4745ZM40.9149 53.9C40.6613 53.9 40.4329 53.8548 40.2297 53.7645C40.0283 53.6725 39.8685 53.537 39.7504 53.3581C39.634 53.1792 39.5758 52.9586 39.5758 52.6964C39.5758 52.4706 39.6175 52.2839 39.7009 52.1362C39.7842 51.9886 39.898 51.8705 40.0422 51.7819C40.1863 51.6934 40.3487 51.6265 40.5293 51.5813C40.7117 51.5344 40.9001 51.5006 41.0947 51.4797C41.3291 51.4554 41.5193 51.4337 41.6652 51.4146C41.8111 51.3938 41.917 51.3625 41.983 51.3208C42.0508 51.2774 42.0846 51.2105 42.0846 51.1202V51.1046C42.0846 50.9083 42.0265 50.7564 41.9101 50.6487C41.7937 50.541 41.6261 50.4871 41.4073 50.4871C41.1763 50.4871 40.9931 50.5375 40.8576 50.6382C40.7239 50.739 40.6335 50.858 40.5866 50.9952L39.7061 50.8701C39.7756 50.627 39.8902 50.4238 40.05 50.2605C40.2098 50.0955 40.4051 49.9722 40.6361 49.8906C40.8671 49.8072 41.1224 49.7655 41.4021 49.7655C41.5949 49.7655 41.7868 49.7881 41.9778 49.8332C42.1689 49.8784 42.3434 49.9531 42.5015 50.0573C42.6595 50.1598 42.7863 50.2996 42.8818 50.4767C42.9791 50.6539 43.0277 50.8753 43.0277 51.1411V53.8192H42.1211V53.2695H42.0899C42.0325 53.3807 41.9518 53.4849 41.8476 53.5821C41.7451 53.6777 41.6157 53.755 41.4594 53.814C41.3048 53.8713 41.1233 53.9 40.9149 53.9ZM41.1598 53.207C41.3491 53.207 41.5132 53.1696 41.6522 53.095C41.7911 53.0185 41.8979 52.9178 41.9726 52.7928C42.049 52.6677 42.0872 52.5314 42.0872 52.3837V51.9122C42.0577 51.9365 42.0074 51.9591 41.9361 51.9799C41.8667 52.0008 41.7885 52.019 41.7017 52.0346C41.6148 52.0503 41.5289 52.0642 41.4438 52.0763C41.3587 52.0885 41.2848 52.0989 41.2223 52.1076C41.0816 52.1267 40.9557 52.158 40.8446 52.2014C40.7334 52.2448 40.6457 52.3056 40.5814 52.3837C40.5172 52.4602 40.485 52.5592 40.485 52.6807C40.485 52.8544 40.5484 52.9855 40.6752 53.0741C40.802 53.1627 40.9635 53.207 41.1598 53.207ZM43.976 53.8192V49.8176H44.8774V50.4976H44.9243C45.0077 50.2683 45.1458 50.0894 45.3386 49.9609C45.5313 49.8306 45.7615 49.7655 46.0289 49.7655C46.2999 49.7655 46.5283 49.8315 46.7141 49.9635C46.9017 50.0938 47.0337 50.2718 47.1101 50.4976H47.1518C47.2404 50.2753 47.3897 50.0981 47.5999 49.9661C47.8118 49.8324 48.0627 49.7655 48.3528 49.7655C48.721 49.7655 49.0215 49.8819 49.2542 50.1146C49.4869 50.3473 49.6033 50.6869 49.6033 51.1332V53.8192H48.6576V51.2791C48.6576 51.0308 48.5916 50.8493 48.4596 50.7346C48.3276 50.6183 48.1661 50.5601 47.975 50.5601C47.7475 50.5601 47.5695 50.6313 47.441 50.7737C47.3142 50.9144 47.2508 51.0976 47.2508 51.3234V53.8192H46.3259V51.2401C46.3259 51.0334 46.2634 50.8684 46.1384 50.7451C46.015 50.6217 45.8535 50.5601 45.6538 50.5601C45.5183 50.5601 45.395 50.5948 45.2838 50.6643C45.1727 50.732 45.0841 50.8284 45.0181 50.9535C44.9521 51.0768 44.9191 51.2209 44.9191 51.3859V53.8192H43.976ZM52.3316 53.8974C51.9304 53.8974 51.5839 53.814 51.2921 53.6473C51.0021 53.4788 50.7789 53.2409 50.6226 52.9334C50.4663 52.6243 50.3881 52.2604 50.3881 51.8419C50.3881 51.4302 50.4663 51.069 50.6226 50.7581C50.7806 50.4455 51.0012 50.2023 51.2843 50.0286C51.5674 49.8532 51.9 49.7655 52.2821 49.7655C52.5287 49.7655 52.7615 49.8054 52.9803 49.8853C53.2009 49.9635 53.3954 50.0851 53.5639 50.2501C53.7341 50.4151 53.8678 50.6252 53.9651 50.8805C54.0623 51.1341 54.111 51.4363 54.111 51.7871V52.0763H50.831V51.4407H53.2069C53.2052 51.26 53.1661 51.0994 53.0897 50.9587C53.0133 50.8163 52.9065 50.7042 52.7693 50.6226C52.6338 50.541 52.4757 50.5002 52.2951 50.5002C52.1023 50.5002 51.933 50.5471 51.7871 50.6409C51.6412 50.7329 51.5274 50.8545 51.4458 51.0056C51.3659 51.1549 51.3251 51.3191 51.3234 51.498V52.0529C51.3234 52.2856 51.3659 52.4853 51.451 52.6521C51.5361 52.8171 51.6551 52.9439 51.8079 53.0324C51.9608 53.1193 52.1397 53.1627 52.3446 53.1627C52.4818 53.1627 52.606 53.1436 52.7172 53.1054C52.8283 53.0654 52.9247 53.0073 53.0063 52.9308C53.088 52.8544 53.1496 52.7598 53.1913 52.6469L54.0719 52.7459C54.0163 52.9786 53.9104 53.1818 53.754 53.3555C53.5995 53.5274 53.4015 53.6612 53.16 53.7567C52.9186 53.8505 52.6425 53.8974 52.3316 53.8974ZM56.3938 53.8896C56.0794 53.8896 55.798 53.8088 55.5497 53.6473C55.3013 53.4857 55.1051 53.2513 54.9609 52.9439C54.8167 52.6364 54.7447 52.263 54.7447 51.8236C54.7447 51.379 54.8176 51.0038 54.9635 50.6982C55.1111 50.3908 55.31 50.1589 55.5601 50.0026C55.8102 49.8445 56.089 49.7655 56.3964 49.7655C56.6308 49.7655 56.8236 49.8054 56.9747 49.8853C57.1258 49.9635 57.2457 50.0582 57.3343 50.1693C57.4228 50.2787 57.4914 50.3821 57.5401 50.4793H57.5791V48.4837H58.5248V53.8192H57.5974V53.1888H57.5401C57.4914 53.286 57.4211 53.3894 57.329 53.4988C57.237 53.6065 57.1154 53.6985 56.9643 53.7749C56.8132 53.8513 56.623 53.8896 56.3938 53.8896ZM56.6569 53.1158C56.8566 53.1158 57.0268 53.062 57.1675 52.9543C57.3082 52.8449 57.415 52.6929 57.488 52.4984C57.5609 52.3038 57.5974 52.0772 57.5974 51.8184C57.5974 51.5596 57.5609 51.3347 57.488 51.1437C57.4167 50.9526 57.3108 50.8041 57.1701 50.6982C57.0312 50.5922 56.8601 50.5393 56.6569 50.5393C56.4467 50.5393 56.2713 50.594 56.1306 50.7034C55.99 50.8128 55.884 50.9639 55.8128 51.1567C55.7416 51.3495 55.706 51.57 55.706 51.8184C55.706 52.0685 55.7416 52.2917 55.8128 52.488C55.8858 52.6825 55.9926 52.8362 56.1332 52.9491C56.2757 53.0602 56.4502 53.1158 56.6569 53.1158Z" fill="black"/>
<path d="M18.9231 62.6816H18.3705C18.3378 62.5226 18.2806 62.383 18.1989 62.2626C18.1187 62.1423 18.0206 62.0413 17.9047 61.9595C17.7903 61.8764 17.6633 61.814 17.5237 61.7724C17.384 61.7308 17.2384 61.71 17.0869 61.71C16.8106 61.71 16.5602 61.7798 16.3359 61.9194C16.1131 62.0591 15.9355 62.2648 15.8033 62.5367C15.6726 62.8086 15.6072 63.1421 15.6072 63.5373C15.6072 63.9325 15.6726 64.266 15.8033 64.5379C15.9355 64.8097 16.1131 65.0155 16.3359 65.1551C16.5602 65.2948 16.8106 65.3646 17.0869 65.3646C17.2384 65.3646 17.384 65.3438 17.5237 65.3022C17.6633 65.2606 17.7903 65.199 17.9047 65.1173C18.0206 65.0341 18.1187 64.9323 18.1989 64.812C18.2806 64.6901 18.3378 64.5505 18.3705 64.393H18.9231C18.8815 64.6263 18.8058 64.835 18.6958 65.0192C18.5859 65.2034 18.4492 65.3602 18.2858 65.4894C18.1224 65.6172 17.9389 65.7145 17.7354 65.7813C17.5333 65.8482 17.3172 65.8816 17.0869 65.8816C16.6977 65.8816 16.3515 65.7865 16.0484 65.5964C15.7454 65.4062 15.5069 65.1358 15.3331 64.7852C15.1593 64.4346 15.0724 64.0186 15.0724 63.5373C15.0724 63.0559 15.1593 62.64 15.3331 62.2894C15.5069 61.9388 15.7454 61.6684 16.0484 61.4782C16.3515 61.288 16.6977 61.193 17.0869 61.193C17.3172 61.193 17.5333 61.2264 17.7354 61.2932C17.9389 61.3601 18.1224 61.4581 18.2858 61.5874C18.4492 61.7152 18.5859 61.8712 18.6958 62.0554C18.8058 62.2381 18.8815 62.4468 18.9231 62.6816ZM19.5666 61.7456V61.2554H22.9895V61.7456H21.5544V65.8192H21.0017V61.7456H19.5666ZM27.5032 63.5373C27.5032 64.0186 27.4163 64.4346 27.2425 64.7852C27.0686 65.1358 26.8302 65.4062 26.5271 65.5964C26.2241 65.7865 25.8779 65.8816 25.4887 65.8816C25.0994 65.8816 24.7533 65.7865 24.4502 65.5964C24.1472 65.4062 23.9087 65.1358 23.7349 64.7852C23.5611 64.4346 23.4742 64.0186 23.4742 63.5373C23.4742 63.0559 23.5611 62.64 23.7349 62.2894C23.9087 61.9388 24.1472 61.6684 24.4502 61.4782C24.7533 61.288 25.0994 61.193 25.4887 61.193C25.8779 61.193 26.2241 61.288 26.5271 61.4782C26.8302 61.6684 27.0686 61.9388 27.2425 62.2894C27.4163 62.64 27.5032 63.0559 27.5032 63.5373ZM26.9684 63.5373C26.9684 63.1421 26.9023 62.8086 26.77 62.5367C26.6393 62.2648 26.4618 62.0591 26.2374 61.9194C26.0146 61.7798 25.765 61.71 25.4887 61.71C25.2124 61.71 24.962 61.7798 24.7377 61.9194C24.5149 62.0591 24.3373 62.2648 24.2051 62.5367C24.0744 62.8086 24.009 63.1421 24.009 63.5373C24.009 63.9325 24.0744 64.266 24.2051 64.5379C24.3373 64.8097 24.5149 65.0155 24.7377 65.1551C24.962 65.2948 25.2124 65.3646 25.4887 65.3646C25.765 65.3646 26.0146 65.2948 26.2374 65.1551C26.4618 65.0155 26.6393 64.8097 26.77 64.5379C26.9023 64.266 26.9684 63.9325 26.9684 63.5373Z" fill="black"/>
</g>
</g>
<defs>
<filter id="filter0_d_38_727" x="0.0799561" y="0.821548" width="87.84" height="87.84" filterUnits="userSpaceOnUse" color-interpolation-filters="sRGB">
<feFlood flood-opacity="0" result="BackgroundImageFix"/>
<feColorMatrix in="SourceAlpha" type="matrix" values="0 0 0 0 0 0 0 0 0 0 0 0 0 0 0 0 0 0 127 0" result="hardAlpha"/>
<feOffset dy="2"/>
<feGaussianBlur stdDeviation="2"/>
<feComposite in2="hardAlpha" operator="out"/>
<feColorMatrix type="matrix" values="0 0 0 0 0 0 0 0 0 0 0 0 0 0 0 0 0 0 0.25 0"/>
<feBlend mode="normal" in2="BackgroundImageFix" result="effect1_dropShadow_38_727"/>
<feBlend mode="normal" in="SourceGraphic" in2="effect1_dropShadow_38_727" result="shape"/>
</filter>
<clipPath id="clip0_38_727">
<rect x="4.07996" y="2.82155" width="79.84" height="79.84" rx="8.49448" fill="white"/>
</clipPath>
</defs>
</svg>
